ISO-10303-21;
HEADER;
/* Generated by software containing ST-Developer
 * from STEP Tools, Inc. (www.steptools.com) 
 */

FILE_DESCRIPTION(
/* description */ (''),
/* implementation_level */ '2;1');

FILE_NAME(
/* name */ 'cable-plug.step',
/* time_stamp */ '2026-02-24T22:49:39+01:00',
/* author */ (''),
/* organization */ (''),
/* preprocessor_version */ 'ST-DEVELOPER v20.1',
/* originating_system */ 'Autodesk Translation Framework v14.21.0.0',
/* authorisation */ '');

FILE_SCHEMA (('AUTOMOTIVE_DESIGN { 1 0 10303 214 3 1 1 }'));
ENDSEC;

DATA;
#10=MECHANICAL_DESIGN_GEOMETRIC_PRESENTATION_REPRESENTATION('',(#13),#1375);
#11=SHAPE_REPRESENTATION_RELATIONSHIP('SRR','None',#1382,#12);
#12=ADVANCED_BREP_SHAPE_REPRESENTATION('',(#14),#1374);
#13=STYLED_ITEM('',(#1391),#14);
#14=MANIFOLD_SOLID_BREP('Body1',#727);
#15=(
BOUNDED_SURFACE()
B_SPLINE_SURFACE(2,2,((#1143,#1144,#1145,#1146,#1147,#1148,#1149,#1150,
#1151),(#1152,#1153,#1154,#1155,#1156,#1157,#1158,#1159,#1160),(#1161,#1162,
#1163,#1164,#1165,#1166,#1167,#1168,#1169),(#1170,#1171,#1172,#1173,#1174,
#1175,#1176,#1177,#1178),(#1179,#1180,#1181,#1182,#1183,#1184,#1185,#1186,
#1187),(#1188,#1189,#1190,#1191,#1192,#1193,#1194,#1195,#1196),(#1197,#1198,
#1199,#1200,#1201,#1202,#1203,#1204,#1205)),.UNSPECIFIED.,.F.,.F.,.F.)
B_SPLINE_SURFACE_WITH_KNOTS((3,2,2,3),(3,2,2,2,3),(-1.65561593157405,-0.577554758529161,
0.500506414515723,1.57856758756061),(0.,1.54581134918109,3.09162269836218,
4.63743404754328,6.18324539672437),.UNSPECIFIED.)
GEOMETRIC_REPRESENTATION_ITEM()
RATIONAL_B_SPLINE_SURFACE(((1.,0.715884899344842,1.,0.715884899344842,1.,
0.715884899344842,1.,0.715884899344842,1.),(0.858206688624166,0.614377208902781,
0.858206688624166,0.614377208902781,0.858206688624166,0.614377208902781,
0.858206688624166,0.614377208902781,0.858206688624166),(1.,0.715884899344842,
1.,0.715884899344842,1.,0.715884899344842,1.,0.715884899344842,1.),(0.858206688624171,
0.614377208902784,0.858206688624171,0.614377208902784,0.858206688624171,
0.614377208902784,0.858206688624171,0.614377208902784,0.858206688624171),
(1.,0.715884899344842,1.,0.715884899344842,1.,0.715884899344842,1.,0.715884899344842,
1.),(0.858206688624147,0.614377208902767,0.858206688624147,0.614377208902767,
0.858206688624147,0.614377208902767,0.858206688624147,0.614377208902767,
0.858206688624147),(1.,0.715884899344842,1.,0.715884899344842,1.,0.715884899344842,
1.,0.715884899344842,1.)))
REPRESENTATION_ITEM('')
SURFACE()
);
#16=(
BOUNDED_SURFACE()
B_SPLINE_SURFACE(2,2,((#1243,#1244,#1245,#1246,#1247),(#1248,#1249,#1250,
#1251,#1252),(#1253,#1254,#1255,#1256,#1257),(#1258,#1259,#1260,#1261,#1262),
(#1263,#1264,#1265,#1266,#1267)),.UNSPECIFIED.,.F.,.F.,.F.)
B_SPLINE_SURFACE_WITH_KNOTS((3,2,3),(3,2,3),(-4.70497133358348,-3.17771835371349,
-1.6504653738435),(0.,1.55333239139302,3.10666478278604),.UNSPECIFIED.)
GEOMETRIC_REPRESENTATION_ITEM()
RATIONAL_B_SPLINE_SURFACE(((1.,0.713254178991355,1.,0.713254178991355,1.),
(0.722332883220855,0.51520694758015,0.722332883220855,0.51520694758015,
0.722332883220855),(1.,0.713254178991355,1.,0.713254178991355,1.),(0.722332883220856,
0.51520694758015,0.722332883220856,0.51520694758015,0.722332883220856),
(1.,0.713254178991355,1.,0.713254178991355,1.)))
REPRESENTATION_ITEM('')
SURFACE()
);
#17=CONICAL_SURFACE('',#756,15.5,0.0349065850398866);
#18=CONICAL_SURFACE('',#768,15.5,0.0349065850398866);
#19=CONICAL_SURFACE('',#770,15.5,0.0349065850398866);
#20=FACE_BOUND('',#133,.T.);
#21=FACE_BOUND('',#134,.T.);
#22=FACE_BOUND('',#136,.T.);
#23=FACE_BOUND('',#137,.T.);
#24=FACE_BOUND('',#140,.T.);
#25=FACE_BOUND('',#141,.T.);
#26=FACE_BOUND('',#145,.T.);
#27=FACE_BOUND('',#146,.T.);
#28=FACE_BOUND('',#154,.T.);
#29=FACE_BOUND('',#162,.T.);
#30=FACE_BOUND('',#169,.T.);
#31=FACE_BOUND('',#177,.T.);
#32=B_SPLINE_CURVE_WITH_KNOTS('',3,(#1041,#1042,#1043,#1044,#1045,#1046,
#1047,#1048,#1049,#1050,#1051,#1052,#1053,#1054,#1055,#1056,#1057,#1058),
 .UNSPECIFIED.,.F.,.F.,(4,2,2,2,2,2,2,2,4),(0.,0.0292983987421277,0.0585967688247583,
0.0878950836295858,0.117193353140481,0.146491621778226,0.1757899355491,
0.202786851740208,0.22978387742535),.UNSPECIFIED.);
#33=B_SPLINE_CURVE_WITH_KNOTS('',3,(#1078,#1079,#1080,#1081,#1082,#1083,
#1084,#1085,#1086,#1087,#1088,#1089,#1090,#1091,#1092,#1093,#1094,#1095,
#1096,#1097),.UNSPECIFIED.,.F.,.F.,(4,2,2,2,2,2,2,2,2,4),(0.,0.0292982658919274,
0.0585966008002182,0.0878950137274254,0.117193459641271,0.146491865256296,
0.175790185351177,0.205088437724115,0.224173600690589,0.243258696946114),
 .UNSPECIFIED.);
#34=(
BOUNDED_CURVE()
B_SPLINE_CURVE(2,(#1031,#1032,#1033),.UNSPECIFIED.,.F.,.F.)
B_SPLINE_CURVE_WITH_KNOTS((3,3),(4.51911725210142,6.12072922375967),
 .UNSPECIFIED.)
CURVE()
GEOMETRIC_REPRESENTATION_ITEM()
RATIONAL_B_SPLINE_CURVE((1.,1.,1.))
REPRESENTATION_ITEM('')
);
#35=(
BOUNDED_CURVE()
B_SPLINE_CURVE(2,(#1037,#1038,#1039),.UNSPECIFIED.,.F.,.F.)
B_SPLINE_CURVE_WITH_KNOTS((3,3),(2.03833296589338,4.36591349541257),
 .UNSPECIFIED.)
CURVE()
GEOMETRIC_REPRESENTATION_ITEM()
RATIONAL_B_SPLINE_CURVE((1.,1.,1.))
REPRESENTATION_ITEM('')
);
#36=(
BOUNDED_CURVE()
B_SPLINE_CURVE(2,(#1059,#1060,#1061),.UNSPECIFIED.,.F.,.F.)
B_SPLINE_CURVE_WITH_KNOTS((3,3),(0.831578880055015,1.89464544244519),
 .UNSPECIFIED.)
CURVE()
GEOMETRIC_REPRESENTATION_ITEM()
RATIONAL_B_SPLINE_CURVE((1.,1.,1.))
REPRESENTATION_ITEM('')
);
#37=(
BOUNDED_CURVE()
B_SPLINE_CURVE(2,(#1068,#1069,#1070),.UNSPECIFIED.,.F.,.F.)
B_SPLINE_CURVE_WITH_KNOTS((3,3),(0.831578880055015,1.89464544244519),
 .UNSPECIFIED.)
CURVE()
GEOMETRIC_REPRESENTATION_ITEM()
RATIONAL_B_SPLINE_CURVE((1.,1.,1.))
REPRESENTATION_ITEM('')
);
#38=(
BOUNDED_CURVE()
B_SPLINE_CURVE(2,(#1074,#1075,#1076),.UNSPECIFIED.,.F.,.F.)
B_SPLINE_CURVE_WITH_KNOTS((3,3),(2.03833296589338,4.36591349541257),
 .UNSPECIFIED.)
CURVE()
GEOMETRIC_REPRESENTATION_ITEM()
RATIONAL_B_SPLINE_CURVE((1.,1.,1.))
REPRESENTATION_ITEM('')
);
#39=(
BOUNDED_CURVE()
B_SPLINE_CURVE(2,(#1099,#1100,#1101),.UNSPECIFIED.,.F.,.F.)
B_SPLINE_CURVE_WITH_KNOTS((3,3),(4.51911725210142,6.12072922375967),
 .UNSPECIFIED.)
CURVE()
GEOMETRIC_REPRESENTATION_ITEM()
RATIONAL_B_SPLINE_CURVE((1.,1.,1.))
REPRESENTATION_ITEM('')
);
#40=(
BOUNDED_CURVE()
B_SPLINE_CURVE(2,(#1115,#1116,#1117),.UNSPECIFIED.,.F.,.F.)
B_SPLINE_CURVE_WITH_KNOTS((3,3),(0.,0.336240507011795),.UNSPECIFIED.)
CURVE()
GEOMETRIC_REPRESENTATION_ITEM()
RATIONAL_B_SPLINE_CURVE((1.,1.00004560865854,1.))
REPRESENTATION_ITEM('')
);
#41=(
BOUNDED_CURVE()
B_SPLINE_CURVE(2,(#1123,#1124,#1125),.UNSPECIFIED.,.F.,.F.)
B_SPLINE_CURVE_WITH_KNOTS((3,3),(0.,0.335164143765235),.UNSPECIFIED.)
CURVE()
GEOMETRIC_REPRESENTATION_ITEM()
RATIONAL_B_SPLINE_CURVE((1.,1.00001033320092,1.))
REPRESENTATION_ITEM('')
);
#42=(
BOUNDED_CURVE()
B_SPLINE_CURVE(2,(#1131,#1132,#1133),.UNSPECIFIED.,.F.,.F.)
B_SPLINE_CURVE_WITH_KNOTS((3,3),(0.,0.335133083847668),.UNSPECIFIED.)
CURVE()
GEOMETRIC_REPRESENTATION_ITEM()
RATIONAL_B_SPLINE_CURVE((1.,1.00001033232155,1.))
REPRESENTATION_ITEM('')
);
#43=(
BOUNDED_CURVE()
B_SPLINE_CURVE(2,(#1139,#1140,#1141),.UNSPECIFIED.,.F.,.F.)
B_SPLINE_CURVE_WITH_KNOTS((3,3),(0.,0.336006082780477),.UNSPECIFIED.)
CURVE()
GEOMETRIC_REPRESENTATION_ITEM()
RATIONAL_B_SPLINE_CURVE((1.,1.0000456172634,1.))
REPRESENTATION_ITEM('')
);
#44=(
BOUNDED_CURVE()
B_SPLINE_CURVE(2,(#1215,#1216,#1217),.UNSPECIFIED.,.F.,.F.)
B_SPLINE_CURVE_WITH_KNOTS((3,3),(0.100411723708155,0.56136665957605),
 .UNSPECIFIED.)
CURVE()
GEOMETRIC_REPRESENTATION_ITEM()
RATIONAL_B_SPLINE_CURVE((1.00001061028828,1.00003067248126,1.00001132983804))
REPRESENTATION_ITEM('')
);
#45=(
BOUNDED_CURVE()
B_SPLINE_CURVE(2,(#1223,#1224,#1225),.UNSPECIFIED.,.F.,.F.)
B_SPLINE_CURVE_WITH_KNOTS((3,3),(0.,0.335157106176022),.UNSPECIFIED.)
CURVE()
GEOMETRIC_REPRESENTATION_ITEM()
RATIONAL_B_SPLINE_CURVE((1.,1.0000137972884,1.))
REPRESENTATION_ITEM('')
);
#46=(
BOUNDED_CURVE()
B_SPLINE_CURVE(2,(#1231,#1232,#1233),.UNSPECIFIED.,.F.,.F.)
B_SPLINE_CURVE_WITH_KNOTS((3,3),(0.108622052366808,0.569649395157211),
 .UNSPECIFIED.)
CURVE()
GEOMETRIC_REPRESENTATION_ITEM()
RATIONAL_B_SPLINE_CURVE((1.00001131246512,1.00003067583743,1.00001062199313))
REPRESENTATION_ITEM('')
);
#47=(
BOUNDED_CURVE()
B_SPLINE_CURVE(2,(#1239,#1240,#1241),.UNSPECIFIED.,.F.,.F.)
B_SPLINE_CURVE_WITH_KNOTS((3,3),(0.,0.335194671149731),.UNSPECIFIED.)
CURVE()
GEOMETRIC_REPRESENTATION_ITEM()
RATIONAL_B_SPLINE_CURVE((1.,1.00001379847973,1.))
REPRESENTATION_ITEM('')
);
#48=CIRCLE('',#745,15.3952376915248);
#49=CIRCLE('',#747,0.749999999999997);
#50=CIRCLE('',#748,1.6);
#51=CIRCLE('',#749,1.6);
#52=CIRCLE('',#751,0.75);
#53=CIRCLE('',#752,1.6);
#54=CIRCLE('',#753,1.6);
#55=CIRCLE('',#755,13.5444369084621);
#56=CIRCLE('',#757,15.0026814636103);
#57=CIRCLE('',#766,14.1301006351616);
#58=CIRCLE('',#767,14.0778462789428);
#59=CIRCLE('',#769,14.9504159619292);
#60=PLANE('',#744);
#61=PLANE('',#746);
#62=PLANE('',#750);
#63=PLANE('',#754);
#64=PLANE('',#779);
#65=PLANE('',#780);
#66=PLANE('',#781);
#67=PLANE('',#782);
#68=PLANE('',#783);
#69=PLANE('',#784);
#70=PLANE('',#786);
#71=PLANE('',#787);
#72=PLANE('',#788);
#73=PLANE('',#789);
#74=PLANE('',#790);
#75=PLANE('',#791);
#76=PLANE('',#792);
#77=PLANE('',#794);
#78=PLANE('',#795);
#79=PLANE('',#796);
#80=PLANE('',#797);
#81=PLANE('',#798);
#82=PLANE('',#799);
#83=PLANE('',#801);
#84=PLANE('',#802);
#85=PLANE('',#803);
#86=PLANE('',#804);
#87=PLANE('',#805);
#88=PLANE('',#806);
#89=PLANE('',#807);
#90=FACE_OUTER_BOUND('',#130,.T.);
#91=FACE_OUTER_BOUND('',#131,.T.);
#92=FACE_OUTER_BOUND('',#132,.T.);
#93=FACE_OUTER_BOUND('',#135,.T.);
#94=FACE_OUTER_BOUND('',#138,.T.);
#95=FACE_OUTER_BOUND('',#139,.T.);
#96=FACE_OUTER_BOUND('',#142,.T.);
#97=FACE_OUTER_BOUND('',#143,.T.);
#98=FACE_OUTER_BOUND('',#144,.T.);
#99=FACE_OUTER_BOUND('',#147,.T.);
#100=FACE_OUTER_BOUND('',#148,.T.);
#101=FACE_OUTER_BOUND('',#149,.T.);
#102=FACE_OUTER_BOUND('',#150,.T.);
#103=FACE_OUTER_BOUND('',#151,.T.);
#104=FACE_OUTER_BOUND('',#152,.T.);
#105=FACE_OUTER_BOUND('',#153,.T.);
#106=FACE_OUTER_BOUND('',#155,.T.);
#107=FACE_OUTER_BOUND('',#156,.T.);
#108=FACE_OUTER_BOUND('',#157,.T.);
#109=FACE_OUTER_BOUND('',#158,.T.);
#110=FACE_OUTER_BOUND('',#159,.T.);
#111=FACE_OUTER_BOUND('',#160,.T.);
#112=FACE_OUTER_BOUND('',#161,.T.);
#113=FACE_OUTER_BOUND('',#163,.T.);
#114=FACE_OUTER_BOUND('',#164,.T.);
#115=FACE_OUTER_BOUND('',#165,.T.);
#116=FACE_OUTER_BOUND('',#166,.T.);
#117=FACE_OUTER_BOUND('',#167,.T.);
#118=FACE_OUTER_BOUND('',#168,.T.);
#119=FACE_OUTER_BOUND('',#170,.T.);
#120=FACE_OUTER_BOUND('',#171,.T.);
#121=FACE_OUTER_BOUND('',#172,.T.);
#122=FACE_OUTER_BOUND('',#173,.T.);
#123=FACE_OUTER_BOUND('',#174,.T.);
#124=FACE_OUTER_BOUND('',#175,.T.);
#125=FACE_OUTER_BOUND('',#176,.T.);
#126=FACE_OUTER_BOUND('',#178,.T.);
#127=FACE_OUTER_BOUND('',#179,.T.);
#128=FACE_OUTER_BOUND('',#180,.T.);
#129=FACE_OUTER_BOUND('',#181,.T.);
#130=EDGE_LOOP('',(#478,#479,#480,#481));
#131=EDGE_LOOP('',(#482,#483,#484,#485));
#132=EDGE_LOOP('',(#486,#487,#488,#489,#490,#491,#492,#493));
#133=EDGE_LOOP('',(#494));
#134=EDGE_LOOP('',(#495));
#135=EDGE_LOOP('',(#496,#497,#498,#499,#500,#501,#502,#503));
#136=EDGE_LOOP('',(#504));
#137=EDGE_LOOP('',(#505));
#138=EDGE_LOOP('',(#506,#507,#508,#509));
#139=EDGE_LOOP('',(#510,#511,#512,#513));
#140=EDGE_LOOP('',(#514,#515,#516,#517,#518,#519));
#141=EDGE_LOOP('',(#520,#521,#522,#523,#524,#525));
#142=EDGE_LOOP('',(#526,#527,#528,#529));
#143=EDGE_LOOP('',(#530,#531,#532,#533));
#144=EDGE_LOOP('',(#534,#535,#536,#537));
#145=EDGE_LOOP('',(#538,#539,#540,#541,#542,#543));
#146=EDGE_LOOP('',(#544,#545,#546,#547,#548,#549));
#147=EDGE_LOOP('',(#550,#551,#552,#553));
#148=EDGE_LOOP('',(#554,#555,#556,#557));
#149=EDGE_LOOP('',(#558,#559,#560,#561));
#150=EDGE_LOOP('',(#562,#563,#564,#565));
#151=EDGE_LOOP('',(#566,#567,#568));
#152=EDGE_LOOP('',(#569,#570,#571));
#153=EDGE_LOOP('',(#572,#573,#574,#575,#576,#577));
#154=EDGE_LOOP('',(#578));
#155=EDGE_LOOP('',(#579,#580,#581,#582));
#156=EDGE_LOOP('',(#583,#584,#585,#586));
#157=EDGE_LOOP('',(#587,#588,#589,#590));
#158=EDGE_LOOP('',(#591,#592,#593,#594));
#159=EDGE_LOOP('',(#595,#596,#597,#598));
#160=EDGE_LOOP('',(#599,#600,#601,#602));
#161=EDGE_LOOP('',(#603,#604,#605,#606,#607,#608));
#162=EDGE_LOOP('',(#609));
#163=EDGE_LOOP('',(#610,#611,#612,#613));
#164=EDGE_LOOP('',(#614,#615,#616,#617));
#165=EDGE_LOOP('',(#618,#619,#620,#621));
#166=EDGE_LOOP('',(#622,#623,#624));
#167=EDGE_LOOP('',(#625,#626,#627));
#168=EDGE_LOOP('',(#628,#629,#630,#631,#632,#633));
#169=EDGE_LOOP('',(#634));
#170=EDGE_LOOP('',(#635,#636,#637,#638));
#171=EDGE_LOOP('',(#639,#640,#641,#642));
#172=EDGE_LOOP('',(#643,#644,#645,#646));
#173=EDGE_LOOP('',(#647,#648,#649,#650));
#174=EDGE_LOOP('',(#651,#652,#653,#654));
#175=EDGE_LOOP('',(#655,#656,#657,#658));
#176=EDGE_LOOP('',(#659,#660,#661,#662,#663,#664));
#177=EDGE_LOOP('',(#665));
#178=EDGE_LOOP('',(#666,#667,#668,#669));
#179=EDGE_LOOP('',(#670,#671,#672,#673));
#180=EDGE_LOOP('',(#674,#675,#676,#677));
#181=EDGE_LOOP('',(#678,#679,#680,#681));
#182=LINE('',#1017,#234);
#183=LINE('',#1020,#235);
#184=LINE('',#1023,#236);
#185=LINE('',#1026,#237);
#186=LINE('',#1029,#238);
#187=LINE('',#1102,#239);
#188=LINE('',#1270,#240);
#189=LINE('',#1272,#241);
#190=LINE('',#1273,#242);
#191=LINE('',#1276,#243);
#192=LINE('',#1277,#244);
#193=LINE('',#1280,#245);
#194=LINE('',#1281,#246);
#195=LINE('',#1283,#247);
#196=LINE('',#1285,#248);
#197=LINE('',#1291,#249);
#198=LINE('',#1293,#250);
#199=LINE('',#1294,#251);
#200=LINE('',#1297,#252);
#201=LINE('',#1298,#253);
#202=LINE('',#1301,#254);
#203=LINE('',#1302,#255);
#204=LINE('',#1305,#256);
#205=LINE('',#1306,#257);
#206=LINE('',#1309,#258);
#207=LINE('',#1310,#259);
#208=LINE('',#1312,#260);
#209=LINE('',#1318,#261);
#210=LINE('',#1320,#262);
#211=LINE('',#1321,#263);
#212=LINE('',#1324,#264);
#213=LINE('',#1325,#265);
#214=LINE('',#1328,#266);
#215=LINE('',#1329,#267);
#216=LINE('',#1331,#268);
#217=LINE('',#1333,#269);
#218=LINE('',#1339,#270);
#219=LINE('',#1341,#271);
#220=LINE('',#1342,#272);
#221=LINE('',#1345,#273);
#222=LINE('',#1346,#274);
#223=LINE('',#1349,#275);
#224=LINE('',#1350,#276);
#225=LINE('',#1353,#277);
#226=LINE('',#1354,#278);
#227=LINE('',#1357,#279);
#228=LINE('',#1358,#280);
#229=LINE('',#1360,#281);
#230=LINE('',#1365,#282);
#231=LINE('',#1367,#283);
#232=LINE('',#1369,#284);
#233=LINE('',#1371,#285);
#234=VECTOR('',#819,10.);
#235=VECTOR('',#822,10.);
#236=VECTOR('',#825,10.);
#237=VECTOR('',#828,10.);
#238=VECTOR('',#831,10.);
#239=VECTOR('',#842,10.);
#240=VECTOR('',#899,10.);
#241=VECTOR('',#900,10.);
#242=VECTOR('',#901,10.);
#243=VECTOR('',#904,10.);
#244=VECTOR('',#905,10.);
#245=VECTOR('',#908,10.);
#246=VECTOR('',#909,10.);
#247=VECTOR('',#912,10.);
#248=VECTOR('',#915,10.);
#249=VECTOR('',#922,10.);
#250=VECTOR('',#923,10.);
#251=VECTOR('',#924,10.);
#252=VECTOR('',#927,10.);
#253=VECTOR('',#928,10.);
#254=VECTOR('',#931,10.);
#255=VECTOR('',#932,10.);
#256=VECTOR('',#935,10.);
#257=VECTOR('',#936,10.);
#258=VECTOR('',#939,10.);
#259=VECTOR('',#940,10.);
#260=VECTOR('',#943,10.);
#261=VECTOR('',#950,10.);
#262=VECTOR('',#951,10.);
#263=VECTOR('',#952,10.);
#264=VECTOR('',#955,10.);
#265=VECTOR('',#956,10.);
#266=VECTOR('',#959,10.);
#267=VECTOR('',#960,10.);
#268=VECTOR('',#963,10.);
#269=VECTOR('',#966,10.);
#270=VECTOR('',#973,10.);
#271=VECTOR('',#974,10.);
#272=VECTOR('',#975,10.);
#273=VECTOR('',#978,10.);
#274=VECTOR('',#979,10.);
#275=VECTOR('',#982,10.);
#276=VECTOR('',#983,10.);
#277=VECTOR('',#986,10.);
#278=VECTOR('',#987,10.);
#279=VECTOR('',#990,10.);
#280=VECTOR('',#991,10.);
#281=VECTOR('',#994,10.);
#282=VECTOR('',#1001,1.6);
#283=VECTOR('',#1004,1.6);
#284=VECTOR('',#1007,1.6);
#285=VECTOR('',#1010,1.6);
#286=ELLIPSE('',#742,4.00243817719529,4.);
#287=ELLIPSE('',#743,4.00243817719529,4.);
#288=ELLIPSE('',#758,17.9136934039113,15.5265244974253);
#289=ELLIPSE('',#759,17.1673679297955,14.8490082014095);
#290=ELLIPSE('',#760,17.6440849123083,15.2928438847677);
#291=ELLIPSE('',#761,17.4380904188428,15.0831710897805);
#292=ELLIPSE('',#762,17.4039464963362,15.0847061817103);
#293=ELLIPSE('',#763,17.6823915701997,15.2944806985072);
#294=ELLIPSE('',#764,17.1343380047332,14.8510255690527);
#295=ELLIPSE('',#765,17.953114059247,15.5286435868782);
#296=ELLIPSE('',#771,15.4821247331266,13.4189853270906);
#297=ELLIPSE('',#772,16.2974853665624,14.0965985502309);
#298=ELLIPSE('',#773,15.7517332247296,13.6526659397483);
#299=ELLIPSE('',#774,16.0267628775151,13.8624356618599);
#300=ELLIPSE('',#775,16.2614801323047,14.0944842554633);
#301=ELLIPSE('',#776,15.511739237111,13.4169631647622);
#302=ELLIPSE('',#777,15.9918716407017,13.8608036428057);
#303=ELLIPSE('',#778,15.7824617261582,13.6511260531332);
#304=ELLIPSE('',#785,1.60097527087811,1.6);
#305=ELLIPSE('',#793,1.60097527087811,1.6);
#306=ELLIPSE('',#800,1.60097527087811,1.6);
#307=ELLIPSE('',#808,1.60097527087811,1.6);
#308=VERTEX_POINT('',#1013);
#309=VERTEX_POINT('',#1014);
#310=VERTEX_POINT('',#1016);
#311=VERTEX_POINT('',#1018);
#312=VERTEX_POINT('',#1022);
#313=VERTEX_POINT('',#1024);
#314=VERTEX_POINT('',#1028);
#315=VERTEX_POINT('',#1030);
#316=VERTEX_POINT('',#1034);
#317=VERTEX_POINT('',#1036);
#318=VERTEX_POINT('',#1040);
#319=VERTEX_POINT('',#1062);
#320=VERTEX_POINT('',#1064);
#321=VERTEX_POINT('',#1067);
#322=VERTEX_POINT('',#1071);
#323=VERTEX_POINT('',#1073);
#324=VERTEX_POINT('',#1077);
#325=VERTEX_POINT('',#1098);
#326=VERTEX_POINT('',#1103);
#327=VERTEX_POINT('',#1105);
#328=VERTEX_POINT('',#1111);
#329=VERTEX_POINT('',#1112);
#330=VERTEX_POINT('',#1114);
#331=VERTEX_POINT('',#1118);
#332=VERTEX_POINT('',#1120);
#333=VERTEX_POINT('',#1122);
#334=VERTEX_POINT('',#1127);
#335=VERTEX_POINT('',#1128);
#336=VERTEX_POINT('',#1130);
#337=VERTEX_POINT('',#1134);
#338=VERTEX_POINT('',#1136);
#339=VERTEX_POINT('',#1138);
#340=VERTEX_POINT('',#1211);
#341=VERTEX_POINT('',#1212);
#342=VERTEX_POINT('',#1214);
#343=VERTEX_POINT('',#1218);
#344=VERTEX_POINT('',#1220);
#345=VERTEX_POINT('',#1222);
#346=VERTEX_POINT('',#1227);
#347=VERTEX_POINT('',#1228);
#348=VERTEX_POINT('',#1230);
#349=VERTEX_POINT('',#1234);
#350=VERTEX_POINT('',#1236);
#351=VERTEX_POINT('',#1238);
#352=VERTEX_POINT('',#1269);
#353=VERTEX_POINT('',#1271);
#354=VERTEX_POINT('',#1275);
#355=VERTEX_POINT('',#1279);
#356=VERTEX_POINT('',#1287);
#357=VERTEX_POINT('',#1290);
#358=VERTEX_POINT('',#1292);
#359=VERTEX_POINT('',#1296);
#360=VERTEX_POINT('',#1300);
#361=VERTEX_POINT('',#1304);
#362=VERTEX_POINT('',#1308);
#363=VERTEX_POINT('',#1314);
#364=VERTEX_POINT('',#1317);
#365=VERTEX_POINT('',#1319);
#366=VERTEX_POINT('',#1323);
#367=VERTEX_POINT('',#1327);
#368=VERTEX_POINT('',#1335);
#369=VERTEX_POINT('',#1338);
#370=VERTEX_POINT('',#1340);
#371=VERTEX_POINT('',#1344);
#372=VERTEX_POINT('',#1348);
#373=VERTEX_POINT('',#1352);
#374=VERTEX_POINT('',#1356);
#375=VERTEX_POINT('',#1362);
#376=EDGE_CURVE('',#308,#309,#286,.T.);
#377=EDGE_CURVE('',#310,#308,#182,.T.);
#378=EDGE_CURVE('',#311,#310,#287,.T.);
#379=EDGE_CURVE('',#309,#311,#183,.T.);
#380=EDGE_CURVE('',#312,#310,#184,.T.);
#381=EDGE_CURVE('',#313,#312,#48,.T.);
#382=EDGE_CURVE('',#311,#313,#185,.T.);
#383=EDGE_CURVE('',#308,#314,#186,.T.);
#384=EDGE_CURVE('',#315,#314,#34,.T.);
#385=EDGE_CURVE('',#315,#316,#49,.T.);
#386=EDGE_CURVE('',#317,#316,#35,.T.);
#387=EDGE_CURVE('',#317,#318,#32,.T.);
#388=EDGE_CURVE('',#312,#318,#36,.T.);
#389=EDGE_CURVE('',#319,#319,#50,.T.);
#390=EDGE_CURVE('',#320,#320,#51,.T.);
#391=EDGE_CURVE('',#313,#321,#37,.T.);
#392=EDGE_CURVE('',#321,#322,#52,.T.);
#393=EDGE_CURVE('',#322,#323,#38,.T.);
#394=EDGE_CURVE('',#323,#324,#33,.T.);
#395=EDGE_CURVE('',#324,#325,#39,.T.);
#396=EDGE_CURVE('',#325,#309,#187,.T.);
#397=EDGE_CURVE('',#326,#326,#53,.T.);
#398=EDGE_CURVE('',#327,#327,#54,.T.);
#399=EDGE_CURVE('',#314,#325,#55,.T.);
#400=EDGE_CURVE('',#318,#321,#56,.T.);
#401=EDGE_CURVE('',#328,#329,#288,.T.);
#402=EDGE_CURVE('',#329,#330,#40,.T.);
#403=EDGE_CURVE('',#330,#331,#289,.T.);
#404=EDGE_CURVE('',#331,#332,#290,.T.);
#405=EDGE_CURVE('',#332,#333,#41,.T.);
#406=EDGE_CURVE('',#333,#328,#291,.T.);
#407=EDGE_CURVE('',#334,#335,#292,.T.);
#408=EDGE_CURVE('',#335,#336,#42,.T.);
#409=EDGE_CURVE('',#336,#337,#293,.T.);
#410=EDGE_CURVE('',#337,#338,#294,.T.);
#411=EDGE_CURVE('',#338,#339,#43,.T.);
#412=EDGE_CURVE('',#339,#334,#295,.T.);
#413=EDGE_CURVE('',#316,#323,#57,.T.);
#414=EDGE_CURVE('',#324,#315,#58,.T.);
#415=EDGE_CURVE('',#322,#317,#59,.T.);
#416=EDGE_CURVE('',#340,#341,#296,.T.);
#417=EDGE_CURVE('',#341,#342,#44,.T.);
#418=EDGE_CURVE('',#342,#343,#297,.T.);
#419=EDGE_CURVE('',#343,#344,#298,.T.);
#420=EDGE_CURVE('',#344,#345,#45,.T.);
#421=EDGE_CURVE('',#345,#340,#299,.T.);
#422=EDGE_CURVE('',#346,#347,#300,.T.);
#423=EDGE_CURVE('',#347,#348,#46,.T.);
#424=EDGE_CURVE('',#348,#349,#301,.T.);
#425=EDGE_CURVE('',#349,#350,#302,.T.);
#426=EDGE_CURVE('',#350,#351,#47,.T.);
#427=EDGE_CURVE('',#351,#346,#303,.T.);
#428=EDGE_CURVE('',#349,#352,#188,.T.);
#429=EDGE_CURVE('',#352,#353,#189,.T.);
#430=EDGE_CURVE('',#350,#353,#190,.T.);
#431=EDGE_CURVE('',#353,#354,#191,.T.);
#432=EDGE_CURVE('',#351,#354,#192,.T.);
#433=EDGE_CURVE('',#354,#355,#193,.T.);
#434=EDGE_CURVE('',#346,#355,#194,.T.);
#435=EDGE_CURVE('',#355,#347,#195,.T.);
#436=EDGE_CURVE('',#348,#352,#196,.T.);
#437=EDGE_CURVE('',#356,#356,#304,.T.);
#438=EDGE_CURVE('',#337,#357,#197,.T.);
#439=EDGE_CURVE('',#357,#358,#198,.T.);
#440=EDGE_CURVE('',#338,#358,#199,.T.);
#441=EDGE_CURVE('',#358,#359,#200,.T.);
#442=EDGE_CURVE('',#339,#359,#201,.T.);
#443=EDGE_CURVE('',#359,#360,#202,.T.);
#444=EDGE_CURVE('',#334,#360,#203,.T.);
#445=EDGE_CURVE('',#360,#361,#204,.T.);
#446=EDGE_CURVE('',#335,#361,#205,.T.);
#447=EDGE_CURVE('',#336,#362,#206,.T.);
#448=EDGE_CURVE('',#362,#357,#207,.T.);
#449=EDGE_CURVE('',#361,#362,#208,.T.);
#450=EDGE_CURVE('',#363,#363,#305,.T.);
#451=EDGE_CURVE('',#343,#364,#209,.T.);
#452=EDGE_CURVE('',#364,#365,#210,.T.);
#453=EDGE_CURVE('',#344,#365,#211,.T.);
#454=EDGE_CURVE('',#365,#366,#212,.T.);
#455=EDGE_CURVE('',#345,#366,#213,.T.);
#456=EDGE_CURVE('',#366,#367,#214,.T.);
#457=EDGE_CURVE('',#340,#367,#215,.T.);
#458=EDGE_CURVE('',#342,#364,#216,.T.);
#459=EDGE_CURVE('',#367,#341,#217,.T.);
#460=EDGE_CURVE('',#368,#368,#306,.T.);
#461=EDGE_CURVE('',#331,#369,#218,.T.);
#462=EDGE_CURVE('',#369,#370,#219,.T.);
#463=EDGE_CURVE('',#332,#370,#220,.T.);
#464=EDGE_CURVE('',#370,#371,#221,.T.);
#465=EDGE_CURVE('',#333,#371,#222,.T.);
#466=EDGE_CURVE('',#371,#372,#223,.T.);
#467=EDGE_CURVE('',#328,#372,#224,.T.);
#468=EDGE_CURVE('',#372,#373,#225,.T.);
#469=EDGE_CURVE('',#329,#373,#226,.T.);
#470=EDGE_CURVE('',#330,#374,#227,.T.);
#471=EDGE_CURVE('',#374,#369,#228,.T.);
#472=EDGE_CURVE('',#373,#374,#229,.T.);
#473=EDGE_CURVE('',#375,#375,#307,.T.);
#474=EDGE_CURVE('',#327,#356,#230,.T.);
#475=EDGE_CURVE('',#320,#363,#231,.T.);
#476=EDGE_CURVE('',#319,#368,#232,.T.);
#477=EDGE_CURVE('',#326,#375,#233,.T.);
#478=ORIENTED_EDGE('',*,*,#376,.F.);
#479=ORIENTED_EDGE('',*,*,#377,.F.);
#480=ORIENTED_EDGE('',*,*,#378,.F.);
#481=ORIENTED_EDGE('',*,*,#379,.F.);
#482=ORIENTED_EDGE('',*,*,#378,.T.);
#483=ORIENTED_EDGE('',*,*,#380,.F.);
#484=ORIENTED_EDGE('',*,*,#381,.F.);
#485=ORIENTED_EDGE('',*,*,#382,.F.);
#486=ORIENTED_EDGE('',*,*,#377,.T.);
#487=ORIENTED_EDGE('',*,*,#383,.T.);
#488=ORIENTED_EDGE('',*,*,#384,.F.);
#489=ORIENTED_EDGE('',*,*,#385,.T.);
#490=ORIENTED_EDGE('',*,*,#386,.F.);
#491=ORIENTED_EDGE('',*,*,#387,.T.);
#492=ORIENTED_EDGE('',*,*,#388,.F.);
#493=ORIENTED_EDGE('',*,*,#380,.T.);
#494=ORIENTED_EDGE('',*,*,#389,.T.);
#495=ORIENTED_EDGE('',*,*,#390,.T.);
#496=ORIENTED_EDGE('',*,*,#379,.T.);
#497=ORIENTED_EDGE('',*,*,#382,.T.);
#498=ORIENTED_EDGE('',*,*,#391,.T.);
#499=ORIENTED_EDGE('',*,*,#392,.T.);
#500=ORIENTED_EDGE('',*,*,#393,.T.);
#501=ORIENTED_EDGE('',*,*,#394,.T.);
#502=ORIENTED_EDGE('',*,*,#395,.T.);
#503=ORIENTED_EDGE('',*,*,#396,.T.);
#504=ORIENTED_EDGE('',*,*,#397,.T.);
#505=ORIENTED_EDGE('',*,*,#398,.T.);
#506=ORIENTED_EDGE('',*,*,#376,.T.);
#507=ORIENTED_EDGE('',*,*,#396,.F.);
#508=ORIENTED_EDGE('',*,*,#399,.F.);
#509=ORIENTED_EDGE('',*,*,#383,.F.);
#510=ORIENTED_EDGE('',*,*,#381,.T.);
#511=ORIENTED_EDGE('',*,*,#388,.T.);
#512=ORIENTED_EDGE('',*,*,#400,.T.);
#513=ORIENTED_EDGE('',*,*,#391,.F.);
#514=ORIENTED_EDGE('',*,*,#401,.T.);
#515=ORIENTED_EDGE('',*,*,#402,.T.);
#516=ORIENTED_EDGE('',*,*,#403,.T.);
#517=ORIENTED_EDGE('',*,*,#404,.T.);
#518=ORIENTED_EDGE('',*,*,#405,.T.);
#519=ORIENTED_EDGE('',*,*,#406,.T.);
#520=ORIENTED_EDGE('',*,*,#407,.T.);
#521=ORIENTED_EDGE('',*,*,#408,.T.);
#522=ORIENTED_EDGE('',*,*,#409,.T.);
#523=ORIENTED_EDGE('',*,*,#410,.T.);
#524=ORIENTED_EDGE('',*,*,#411,.T.);
#525=ORIENTED_EDGE('',*,*,#412,.T.);
#526=ORIENTED_EDGE('',*,*,#394,.F.);
#527=ORIENTED_EDGE('',*,*,#413,.F.);
#528=ORIENTED_EDGE('',*,*,#385,.F.);
#529=ORIENTED_EDGE('',*,*,#414,.F.);
#530=ORIENTED_EDGE('',*,*,#413,.T.);
#531=ORIENTED_EDGE('',*,*,#393,.F.);
#532=ORIENTED_EDGE('',*,*,#415,.T.);
#533=ORIENTED_EDGE('',*,*,#386,.T.);
#534=ORIENTED_EDGE('',*,*,#399,.T.);
#535=ORIENTED_EDGE('',*,*,#395,.F.);
#536=ORIENTED_EDGE('',*,*,#414,.T.);
#537=ORIENTED_EDGE('',*,*,#384,.T.);
#538=ORIENTED_EDGE('',*,*,#416,.T.);
#539=ORIENTED_EDGE('',*,*,#417,.T.);
#540=ORIENTED_EDGE('',*,*,#418,.T.);
#541=ORIENTED_EDGE('',*,*,#419,.T.);
#542=ORIENTED_EDGE('',*,*,#420,.T.);
#543=ORIENTED_EDGE('',*,*,#421,.T.);
#544=ORIENTED_EDGE('',*,*,#422,.T.);
#545=ORIENTED_EDGE('',*,*,#423,.T.);
#546=ORIENTED_EDGE('',*,*,#424,.T.);
#547=ORIENTED_EDGE('',*,*,#425,.T.);
#548=ORIENTED_EDGE('',*,*,#426,.T.);
#549=ORIENTED_EDGE('',*,*,#427,.T.);
#550=ORIENTED_EDGE('',*,*,#387,.F.);
#551=ORIENTED_EDGE('',*,*,#415,.F.);
#552=ORIENTED_EDGE('',*,*,#392,.F.);
#553=ORIENTED_EDGE('',*,*,#400,.F.);
#554=ORIENTED_EDGE('',*,*,#425,.F.);
#555=ORIENTED_EDGE('',*,*,#428,.T.);
#556=ORIENTED_EDGE('',*,*,#429,.T.);
#557=ORIENTED_EDGE('',*,*,#430,.F.);
#558=ORIENTED_EDGE('',*,*,#426,.F.);
#559=ORIENTED_EDGE('',*,*,#430,.T.);
#560=ORIENTED_EDGE('',*,*,#431,.T.);
#561=ORIENTED_EDGE('',*,*,#432,.F.);
#562=ORIENTED_EDGE('',*,*,#427,.F.);
#563=ORIENTED_EDGE('',*,*,#432,.T.);
#564=ORIENTED_EDGE('',*,*,#433,.T.);
#565=ORIENTED_EDGE('',*,*,#434,.F.);
#566=ORIENTED_EDGE('',*,*,#422,.F.);
#567=ORIENTED_EDGE('',*,*,#434,.T.);
#568=ORIENTED_EDGE('',*,*,#435,.T.);
#569=ORIENTED_EDGE('',*,*,#424,.F.);
#570=ORIENTED_EDGE('',*,*,#436,.T.);
#571=ORIENTED_EDGE('',*,*,#428,.F.);
#572=ORIENTED_EDGE('',*,*,#423,.F.);
#573=ORIENTED_EDGE('',*,*,#435,.F.);
#574=ORIENTED_EDGE('',*,*,#433,.F.);
#575=ORIENTED_EDGE('',*,*,#431,.F.);
#576=ORIENTED_EDGE('',*,*,#429,.F.);
#577=ORIENTED_EDGE('',*,*,#436,.F.);
#578=ORIENTED_EDGE('',*,*,#437,.F.);
#579=ORIENTED_EDGE('',*,*,#410,.F.);
#580=ORIENTED_EDGE('',*,*,#438,.T.);
#581=ORIENTED_EDGE('',*,*,#439,.T.);
#582=ORIENTED_EDGE('',*,*,#440,.F.);
#583=ORIENTED_EDGE('',*,*,#411,.F.);
#584=ORIENTED_EDGE('',*,*,#440,.T.);
#585=ORIENTED_EDGE('',*,*,#441,.T.);
#586=ORIENTED_EDGE('',*,*,#442,.F.);
#587=ORIENTED_EDGE('',*,*,#412,.F.);
#588=ORIENTED_EDGE('',*,*,#442,.T.);
#589=ORIENTED_EDGE('',*,*,#443,.T.);
#590=ORIENTED_EDGE('',*,*,#444,.F.);
#591=ORIENTED_EDGE('',*,*,#407,.F.);
#592=ORIENTED_EDGE('',*,*,#444,.T.);
#593=ORIENTED_EDGE('',*,*,#445,.T.);
#594=ORIENTED_EDGE('',*,*,#446,.F.);
#595=ORIENTED_EDGE('',*,*,#409,.F.);
#596=ORIENTED_EDGE('',*,*,#447,.T.);
#597=ORIENTED_EDGE('',*,*,#448,.T.);
#598=ORIENTED_EDGE('',*,*,#438,.F.);
#599=ORIENTED_EDGE('',*,*,#408,.F.);
#600=ORIENTED_EDGE('',*,*,#446,.T.);
#601=ORIENTED_EDGE('',*,*,#449,.T.);
#602=ORIENTED_EDGE('',*,*,#447,.F.);
#603=ORIENTED_EDGE('',*,*,#449,.F.);
#604=ORIENTED_EDGE('',*,*,#445,.F.);
#605=ORIENTED_EDGE('',*,*,#443,.F.);
#606=ORIENTED_EDGE('',*,*,#441,.F.);
#607=ORIENTED_EDGE('',*,*,#439,.F.);
#608=ORIENTED_EDGE('',*,*,#448,.F.);
#609=ORIENTED_EDGE('',*,*,#450,.F.);
#610=ORIENTED_EDGE('',*,*,#419,.F.);
#611=ORIENTED_EDGE('',*,*,#451,.T.);
#612=ORIENTED_EDGE('',*,*,#452,.T.);
#613=ORIENTED_EDGE('',*,*,#453,.F.);
#614=ORIENTED_EDGE('',*,*,#420,.F.);
#615=ORIENTED_EDGE('',*,*,#453,.T.);
#616=ORIENTED_EDGE('',*,*,#454,.T.);
#617=ORIENTED_EDGE('',*,*,#455,.F.);
#618=ORIENTED_EDGE('',*,*,#421,.F.);
#619=ORIENTED_EDGE('',*,*,#455,.T.);
#620=ORIENTED_EDGE('',*,*,#456,.T.);
#621=ORIENTED_EDGE('',*,*,#457,.F.);
#622=ORIENTED_EDGE('',*,*,#418,.F.);
#623=ORIENTED_EDGE('',*,*,#458,.T.);
#624=ORIENTED_EDGE('',*,*,#451,.F.);
#625=ORIENTED_EDGE('',*,*,#416,.F.);
#626=ORIENTED_EDGE('',*,*,#457,.T.);
#627=ORIENTED_EDGE('',*,*,#459,.T.);
#628=ORIENTED_EDGE('',*,*,#417,.F.);
#629=ORIENTED_EDGE('',*,*,#459,.F.);
#630=ORIENTED_EDGE('',*,*,#456,.F.);
#631=ORIENTED_EDGE('',*,*,#454,.F.);
#632=ORIENTED_EDGE('',*,*,#452,.F.);
#633=ORIENTED_EDGE('',*,*,#458,.F.);
#634=ORIENTED_EDGE('',*,*,#460,.F.);
#635=ORIENTED_EDGE('',*,*,#404,.F.);
#636=ORIENTED_EDGE('',*,*,#461,.T.);
#637=ORIENTED_EDGE('',*,*,#462,.T.);
#638=ORIENTED_EDGE('',*,*,#463,.F.);
#639=ORIENTED_EDGE('',*,*,#405,.F.);
#640=ORIENTED_EDGE('',*,*,#463,.T.);
#641=ORIENTED_EDGE('',*,*,#464,.T.);
#642=ORIENTED_EDGE('',*,*,#465,.F.);
#643=ORIENTED_EDGE('',*,*,#406,.F.);
#644=ORIENTED_EDGE('',*,*,#465,.T.);
#645=ORIENTED_EDGE('',*,*,#466,.T.);
#646=ORIENTED_EDGE('',*,*,#467,.F.);
#647=ORIENTED_EDGE('',*,*,#401,.F.);
#648=ORIENTED_EDGE('',*,*,#467,.T.);
#649=ORIENTED_EDGE('',*,*,#468,.T.);
#650=ORIENTED_EDGE('',*,*,#469,.F.);
#651=ORIENTED_EDGE('',*,*,#403,.F.);
#652=ORIENTED_EDGE('',*,*,#470,.T.);
#653=ORIENTED_EDGE('',*,*,#471,.T.);
#654=ORIENTED_EDGE('',*,*,#461,.F.);
#655=ORIENTED_EDGE('',*,*,#402,.F.);
#656=ORIENTED_EDGE('',*,*,#469,.T.);
#657=ORIENTED_EDGE('',*,*,#472,.T.);
#658=ORIENTED_EDGE('',*,*,#470,.F.);
#659=ORIENTED_EDGE('',*,*,#472,.F.);
#660=ORIENTED_EDGE('',*,*,#468,.F.);
#661=ORIENTED_EDGE('',*,*,#466,.F.);
#662=ORIENTED_EDGE('',*,*,#464,.F.);
#663=ORIENTED_EDGE('',*,*,#462,.F.);
#664=ORIENTED_EDGE('',*,*,#471,.F.);
#665=ORIENTED_EDGE('',*,*,#473,.F.);
#666=ORIENTED_EDGE('',*,*,#398,.F.);
#667=ORIENTED_EDGE('',*,*,#474,.T.);
#668=ORIENTED_EDGE('',*,*,#437,.T.);
#669=ORIENTED_EDGE('',*,*,#474,.F.);
#670=ORIENTED_EDGE('',*,*,#390,.F.);
#671=ORIENTED_EDGE('',*,*,#475,.T.);
#672=ORIENTED_EDGE('',*,*,#450,.T.);
#673=ORIENTED_EDGE('',*,*,#475,.F.);
#674=ORIENTED_EDGE('',*,*,#389,.F.);
#675=ORIENTED_EDGE('',*,*,#476,.T.);
#676=ORIENTED_EDGE('',*,*,#460,.T.);
#677=ORIENTED_EDGE('',*,*,#476,.F.);
#678=ORIENTED_EDGE('',*,*,#397,.F.);
#679=ORIENTED_EDGE('',*,*,#477,.T.);
#680=ORIENTED_EDGE('',*,*,#473,.T.);
#681=ORIENTED_EDGE('',*,*,#477,.F.);
#682=CYLINDRICAL_SURFACE('',#741,4.);
#683=CYLINDRICAL_SURFACE('',#809,1.6);
#684=CYLINDRICAL_SURFACE('',#810,1.6);
#685=CYLINDRICAL_SURFACE('',#811,1.6);
#686=CYLINDRICAL_SURFACE('',#812,1.6);
#687=ADVANCED_FACE('',(#90),#682,.F.);
#688=ADVANCED_FACE('',(#91),#60,.F.);
#689=ADVANCED_FACE('',(#92,#20,#21),#61,.T.);
#690=ADVANCED_FACE('',(#93,#22,#23),#62,.T.);
#691=ADVANCED_FACE('',(#94),#63,.T.);
#692=ADVANCED_FACE('',(#95,#24,#25),#17,.T.);
#693=ADVANCED_FACE('',(#96),#15,.F.);
#694=ADVANCED_FACE('',(#97),#18,.T.);
#695=ADVANCED_FACE('',(#98,#26,#27),#19,.T.);
#696=ADVANCED_FACE('',(#99),#16,.F.);
#697=ADVANCED_FACE('',(#100),#64,.F.);
#698=ADVANCED_FACE('',(#101),#65,.F.);
#699=ADVANCED_FACE('',(#102),#66,.F.);
#700=ADVANCED_FACE('',(#103),#67,.F.);
#701=ADVANCED_FACE('',(#104),#68,.F.);
#702=ADVANCED_FACE('',(#105,#28),#69,.F.);
#703=ADVANCED_FACE('',(#106),#70,.F.);
#704=ADVANCED_FACE('',(#107),#71,.F.);
#705=ADVANCED_FACE('',(#108),#72,.F.);
#706=ADVANCED_FACE('',(#109),#73,.F.);
#707=ADVANCED_FACE('',(#110),#74,.F.);
#708=ADVANCED_FACE('',(#111),#75,.F.);
#709=ADVANCED_FACE('',(#112,#29),#76,.F.);
#710=ADVANCED_FACE('',(#113),#77,.F.);
#711=ADVANCED_FACE('',(#114),#78,.F.);
#712=ADVANCED_FACE('',(#115),#79,.F.);
#713=ADVANCED_FACE('',(#116),#80,.F.);
#714=ADVANCED_FACE('',(#117),#81,.F.);
#715=ADVANCED_FACE('',(#118,#30),#82,.F.);
#716=ADVANCED_FACE('',(#119),#83,.F.);
#717=ADVANCED_FACE('',(#120),#84,.F.);
#718=ADVANCED_FACE('',(#121),#85,.F.);
#719=ADVANCED_FACE('',(#122),#86,.F.);
#720=ADVANCED_FACE('',(#123),#87,.F.);
#721=ADVANCED_FACE('',(#124),#88,.F.);
#722=ADVANCED_FACE('',(#125,#31),#89,.F.);
#723=ADVANCED_FACE('',(#126),#683,.F.);
#724=ADVANCED_FACE('',(#127),#684,.F.);
#725=ADVANCED_FACE('',(#128),#685,.F.);
#726=ADVANCED_FACE('',(#129),#686,.F.);
#727=CLOSED_SHELL('',(#687,#688,#689,#690,#691,#692,#693,#694,#695,#696,
#697,#698,#699,#700,#701,#702,#703,#704,#705,#706,#707,#708,#709,#710,#711,
#712,#713,#714,#715,#716,#717,#718,#719,#720,#721,#722,#723,#724,#725,#726));
#728=DERIVED_UNIT_ELEMENT(#730,1.);
#729=DERIVED_UNIT_ELEMENT(#1377,-3.);
#730=(
MASS_UNIT()
NAMED_UNIT(*)
SI_UNIT(.KILO.,.GRAM.)
);
#731=DERIVED_UNIT((#728,#729));
#732=MEASURE_REPRESENTATION_ITEM('density measure',
POSITIVE_RATIO_MEASURE(7850.),#731);
#733=PROPERTY_DEFINITION_REPRESENTATION(#738,#735);
#734=PROPERTY_DEFINITION_REPRESENTATION(#739,#736);
#735=REPRESENTATION('material name',(#737),#1374);
#736=REPRESENTATION('density',(#732),#1374);
#737=DESCRIPTIVE_REPRESENTATION_ITEM('Steel','Steel');
#738=PROPERTY_DEFINITION('material property','material name',#1384);
#739=PROPERTY_DEFINITION('material property','density of part',#1384);
#740=AXIS2_PLACEMENT_3D('',#1011,#813,#814);
#741=AXIS2_PLACEMENT_3D('',#1012,#815,#816);
#742=AXIS2_PLACEMENT_3D('',#1015,#817,#818);
#743=AXIS2_PLACEMENT_3D('',#1019,#820,#821);
#744=AXIS2_PLACEMENT_3D('',#1021,#823,#824);
#745=AXIS2_PLACEMENT_3D('',#1025,#826,#827);
#746=AXIS2_PLACEMENT_3D('',#1027,#829,#830);
#747=AXIS2_PLACEMENT_3D('',#1035,#832,#833);
#748=AXIS2_PLACEMENT_3D('',#1063,#834,#835);
#749=AXIS2_PLACEMENT_3D('',#1065,#836,#837);
#750=AXIS2_PLACEMENT_3D('',#1066,#838,#839);
#751=AXIS2_PLACEMENT_3D('',#1072,#840,#841);
#752=AXIS2_PLACEMENT_3D('',#1104,#843,#844);
#753=AXIS2_PLACEMENT_3D('',#1106,#845,#846);
#754=AXIS2_PLACEMENT_3D('',#1107,#847,#848);
#755=AXIS2_PLACEMENT_3D('',#1108,#849,#850);
#756=AXIS2_PLACEMENT_3D('',#1109,#851,#852);
#757=AXIS2_PLACEMENT_3D('',#1110,#853,#854);
#758=AXIS2_PLACEMENT_3D('',#1113,#855,#856);
#759=AXIS2_PLACEMENT_3D('',#1119,#857,#858);
#760=AXIS2_PLACEMENT_3D('',#1121,#859,#860);
#761=AXIS2_PLACEMENT_3D('',#1126,#861,#862);
#762=AXIS2_PLACEMENT_3D('',#1129,#863,#864);
#763=AXIS2_PLACEMENT_3D('',#1135,#865,#866);
#764=AXIS2_PLACEMENT_3D('',#1137,#867,#868);
#765=AXIS2_PLACEMENT_3D('',#1142,#869,#870);
#766=AXIS2_PLACEMENT_3D('',#1206,#871,#872);
#767=AXIS2_PLACEMENT_3D('',#1207,#873,#874);
#768=AXIS2_PLACEMENT_3D('',#1208,#875,#876);
#769=AXIS2_PLACEMENT_3D('',#1209,#877,#878);
#770=AXIS2_PLACEMENT_3D('',#1210,#879,#880);
#771=AXIS2_PLACEMENT_3D('',#1213,#881,#882);
#772=AXIS2_PLACEMENT_3D('',#1219,#883,#884);
#773=AXIS2_PLACEMENT_3D('',#1221,#885,#886);
#774=AXIS2_PLACEMENT_3D('',#1226,#887,#888);
#775=AXIS2_PLACEMENT_3D('',#1229,#889,#890);
#776=AXIS2_PLACEMENT_3D('',#1235,#891,#892);
#777=AXIS2_PLACEMENT_3D('',#1237,#893,#894);
#778=AXIS2_PLACEMENT_3D('',#1242,#895,#896);
#779=AXIS2_PLACEMENT_3D('',#1268,#897,#898);
#780=AXIS2_PLACEMENT_3D('',#1274,#902,#903);
#781=AXIS2_PLACEMENT_3D('',#1278,#906,#907);
#782=AXIS2_PLACEMENT_3D('',#1282,#910,#911);
#783=AXIS2_PLACEMENT_3D('',#1284,#913,#914);
#784=AXIS2_PLACEMENT_3D('',#1286,#916,#917);
#785=AXIS2_PLACEMENT_3D('',#1288,#918,#919);
#786=AXIS2_PLACEMENT_3D('',#1289,#920,#921);
#787=AXIS2_PLACEMENT_3D('',#1295,#925,#926);
#788=AXIS2_PLACEMENT_3D('',#1299,#929,#930);
#789=AXIS2_PLACEMENT_3D('',#1303,#933,#934);
#790=AXIS2_PLACEMENT_3D('',#1307,#937,#938);
#791=AXIS2_PLACEMENT_3D('',#1311,#941,#942);
#792=AXIS2_PLACEMENT_3D('',#1313,#944,#945);
#793=AXIS2_PLACEMENT_3D('',#1315,#946,#947);
#794=AXIS2_PLACEMENT_3D('',#1316,#948,#949);
#795=AXIS2_PLACEMENT_3D('',#1322,#953,#954);
#796=AXIS2_PLACEMENT_3D('',#1326,#957,#958);
#797=AXIS2_PLACEMENT_3D('',#1330,#961,#962);
#798=AXIS2_PLACEMENT_3D('',#1332,#964,#965);
#799=AXIS2_PLACEMENT_3D('',#1334,#967,#968);
#800=AXIS2_PLACEMENT_3D('',#1336,#969,#970);
#801=AXIS2_PLACEMENT_3D('',#1337,#971,#972);
#802=AXIS2_PLACEMENT_3D('',#1343,#976,#977);
#803=AXIS2_PLACEMENT_3D('',#1347,#980,#981);
#804=AXIS2_PLACEMENT_3D('',#1351,#984,#985);
#805=AXIS2_PLACEMENT_3D('',#1355,#988,#989);
#806=AXIS2_PLACEMENT_3D('',#1359,#992,#993);
#807=AXIS2_PLACEMENT_3D('',#1361,#995,#996);
#808=AXIS2_PLACEMENT_3D('',#1363,#997,#998);
#809=AXIS2_PLACEMENT_3D('',#1364,#999,#1000);
#810=AXIS2_PLACEMENT_3D('',#1366,#1002,#1003);
#811=AXIS2_PLACEMENT_3D('',#1368,#1005,#1006);
#812=AXIS2_PLACEMENT_3D('',#1370,#1008,#1009);
#813=DIRECTION('axis',(0.,0.,1.));
#814=DIRECTION('refdir',(1.,0.,0.));
#815=DIRECTION('center_axis',(0.,0.0348994967025009,0.999390827019096));
#816=DIRECTION('ref_axis',(1.,0.,0.));
#817=DIRECTION('center_axis',(0.,0.,-1.));
#818=DIRECTION('ref_axis',(0.,1.,0.));
#819=DIRECTION('',(0.,0.0348994967025009,0.999390827019096));
#820=DIRECTION('center_axis',(0.,0.,1.));
#821=DIRECTION('ref_axis',(0.,1.,0.));
#822=DIRECTION('',(0.,-0.0348994967025009,-0.999390827019096));
#823=DIRECTION('center_axis',(0.,0.,1.));
#824=DIRECTION('ref_axis',(1.,0.,0.));
#825=DIRECTION('',(1.,0.,0.));
#826=DIRECTION('center_axis',(0.,0.,1.));
#827=DIRECTION('ref_axis',(1.,0.,0.));
#828=DIRECTION('',(1.,0.,0.));
#829=DIRECTION('center_axis',(0.,-0.999390827019096,0.034899496702501));
#830=DIRECTION('ref_axis',(1.,0.,0.));
#831=DIRECTION('',(-1.,0.,0.));
#832=DIRECTION('center_axis',(2.63677968348475E-16,0.999390827019096,-0.034899496702501));
#833=DIRECTION('ref_axis',(1.,-2.54426109809933E-16,0.));
#834=DIRECTION('center_axis',(0.,0.999390827019096,-0.034899496702501));
#835=DIRECTION('ref_axis',(1.,0.,0.));
#836=DIRECTION('center_axis',(0.,0.999390827019096,-0.034899496702501));
#837=DIRECTION('ref_axis',(1.,0.,0.));
#838=DIRECTION('center_axis',(0.,-0.999390827019096,0.034899496702501));
#839=DIRECTION('ref_axis',(1.,0.,0.));
#840=DIRECTION('center_axis',(-1.97064586870965E-15,0.999390827019096,-0.034899496702501));
#841=DIRECTION('ref_axis',(1.,1.97180235102697E-15,0.));
#842=DIRECTION('',(-1.,0.,0.));
#843=DIRECTION('center_axis',(0.,0.999390827019096,-0.034899496702501));
#844=DIRECTION('ref_axis',(1.,0.,0.));
#845=DIRECTION('center_axis',(0.,0.999390827019096,-0.034899496702501));
#846=DIRECTION('ref_axis',(1.,0.,0.));
#847=DIRECTION('center_axis',(0.,0.,1.));
#848=DIRECTION('ref_axis',(-1.,0.,0.));
#849=DIRECTION('center_axis',(0.,0.,-1.));
#850=DIRECTION('ref_axis',(1.,0.,0.));
#851=DIRECTION('center_axis',(0.,0.,-1.));
#852=DIRECTION('ref_axis',(1.,0.,0.));
#853=DIRECTION('center_axis',(0.,0.,-1.));
#854=DIRECTION('ref_axis',(0.999450432711563,0.0331486433005944,0.));
#855=DIRECTION('center_axis',(0.498455446595844,0.,-0.866915317524692));
#856=DIRECTION('ref_axis',(0.866915317524692,-1.115571981314E-15,0.498455446595844));
#857=DIRECTION('center_axis',(0.501542964608313,0.,0.865132738169065));
#858=DIRECTION('ref_axis',(-0.865132738169065,-3.88023264544216E-15,0.501542964608313));
#859=DIRECTION('center_axis',(-0.498455446595845,0.,0.866915317524692));
#860=DIRECTION('ref_axis',(-0.866915317524692,-3.1461620994883E-15,-0.498455446595845));
#861=DIRECTION('center_axis',(-0.501542964608314,0.,-0.865132738169065));
#862=DIRECTION('ref_axis',(-0.865132738169065,-1.1459978680727E-15,0.501542964608314));
#863=DIRECTION('center_axis',(0.498455446595844,0.,-0.866915317524692));
#864=DIRECTION('ref_axis',(-0.866915317524692,-7.65497428891001E-16,-0.498455446595844));
#865=DIRECTION('center_axis',(0.501542964608313,0.,0.865132738169065));
#866=DIRECTION('ref_axis',(-0.865132738169065,-2.13475551015801E-15,0.501542964608313));
#867=DIRECTION('center_axis',(-0.498455446595845,0.,0.866915317524692));
#868=DIRECTION('ref_axis',(-0.866915317524692,-4.27648384227151E-15,-0.498455446595845));
#869=DIRECTION('center_axis',(-0.501542964608314,0.,-0.865132738169065));
#870=DIRECTION('ref_axis',(-0.865132738169065,-2.22624491520565E-15,0.501542964608314));
#871=DIRECTION('center_axis',(0.,0.,-1.));
#872=DIRECTION('ref_axis',(-0.99999597181591,-0.00283837135581788,0.));
#873=DIRECTION('center_axis',(0.,0.,1.));
#874=DIRECTION('ref_axis',(-0.999999214501687,0.00125339379676107,0.));
#875=DIRECTION('center_axis',(0.,0.,-1.));
#876=DIRECTION('ref_axis',(1.,0.,0.));
#877=DIRECTION('center_axis',(0.,0.,1.));
#878=DIRECTION('ref_axis',(0.99932410619343,0.0367604513125455,0.));
#879=DIRECTION('center_axis',(0.,0.,-1.));
#880=DIRECTION('ref_axis',(1.,0.,0.));
#881=DIRECTION('center_axis',(-0.498455446595845,0.,0.866915317524692));
#882=DIRECTION('ref_axis',(-0.866915317524692,-2.29471971066017E-15,-0.498455446595844));
#883=DIRECTION('center_axis',(-0.501542964608314,0.,-0.865132738169065));
#884=DIRECTION('ref_axis',(-0.865132738169065,-1.63493643293413E-15,0.501542964608313));
#885=DIRECTION('center_axis',(0.498455446595844,0.,-0.866915317524692));
#886=DIRECTION('ref_axis',(-0.866915317524692,-4.93378161088652E-15,-0.498455446595844));
#887=DIRECTION('center_axis',(0.501542964608313,0.,0.865132738169065));
#888=DIRECTION('ref_axis',(-0.865132738169065,-5.9574837942924E-15,0.501542964608314));
#889=DIRECTION('center_axis',(0.498455446595844,0.,-0.866915317524692));
#890=DIRECTION('ref_axis',(-0.866915317524692,-3.82329830207144E-15,-0.498455446595845));
#891=DIRECTION('center_axis',(0.501542964608313,0.,0.865132738169065));
#892=DIRECTION('ref_axis',(-0.865132738169065,-7.0141622902584E-15,0.501542964608314));
#893=DIRECTION('center_axis',(-0.498455446595845,0.,0.866915317524692));
#894=DIRECTION('ref_axis',(-0.866915317524692,-1.80502941049041E-15,-0.498455446595844));
#895=DIRECTION('center_axis',(-0.501542964608314,0.,-0.865132738169065));
#896=DIRECTION('ref_axis',(-0.865132738169065,-8.72282521207358E-15,0.501542964608314));
#897=DIRECTION('center_axis',(-0.498455446595845,0.,0.866915317524692));
#898=DIRECTION('ref_axis',(-0.866915317524692,0.,-0.498455446595845));
#899=DIRECTION('',(0.,-1.,0.));
#900=DIRECTION('',(-0.866915317524692,0.,-0.498455446595845));
#901=DIRECTION('',(0.,-1.,0.));
#902=DIRECTION('center_axis',(-0.999998411204158,0.,0.00178257935562703));
#903=DIRECTION('ref_axis',(-0.00178257935562703,0.,-0.999998411204158));
#904=DIRECTION('',(-0.00178257935562703,0.,-0.999998411204158));
#905=DIRECTION('',(0.,-1.,0.));
#906=DIRECTION('center_axis',(-0.501542964608314,0.,-0.865132738169065));
#907=DIRECTION('ref_axis',(0.865132738169065,0.,-0.501542964608314));
#908=DIRECTION('',(0.865132738169065,0.,-0.501542964608314));
#909=DIRECTION('',(0.,-1.,0.));
#910=DIRECTION('center_axis',(0.498455446595844,0.,-0.866915317524692));
#911=DIRECTION('ref_axis',(0.866915317524692,0.,0.498455446595844));
#912=DIRECTION('',(0.866915317524692,0.,0.498455446595844));
#913=DIRECTION('center_axis',(0.501542964608313,0.,0.865132738169065));
#914=DIRECTION('ref_axis',(-0.865132738169065,0.,0.501542964608313));
#915=DIRECTION('',(-0.865132738169065,0.,0.501542964608313));
#916=DIRECTION('center_axis',(0.,-1.,0.));
#917=DIRECTION('ref_axis',(0.,0.,-1.));
#918=DIRECTION('center_axis',(0.,1.,0.));
#919=DIRECTION('ref_axis',(0.,0.,-1.));
#920=DIRECTION('center_axis',(-0.498455446595845,0.,0.866915317524692));
#921=DIRECTION('ref_axis',(-0.866915317524692,0.,-0.498455446595845));
#922=DIRECTION('',(0.,-1.,0.));
#923=DIRECTION('',(-0.866915317524692,0.,-0.498455446595845));
#924=DIRECTION('',(0.,-1.,0.));
#925=DIRECTION('center_axis',(-0.999998411204158,0.,0.00178257935562703));
#926=DIRECTION('ref_axis',(-0.00178257935562703,0.,-0.999998411204158));
#927=DIRECTION('',(-0.00178257935562703,0.,-0.999998411204158));
#928=DIRECTION('',(0.,-1.,0.));
#929=DIRECTION('center_axis',(-0.501542964608314,0.,-0.865132738169065));
#930=DIRECTION('ref_axis',(0.865132738169065,0.,-0.501542964608314));
#931=DIRECTION('',(0.865132738169065,0.,-0.501542964608314));
#932=DIRECTION('',(0.,-1.,0.));
#933=DIRECTION('center_axis',(0.498455446595844,0.,-0.866915317524692));
#934=DIRECTION('ref_axis',(0.866915317524692,0.,0.498455446595844));
#935=DIRECTION('',(0.866915317524692,0.,0.498455446595844));
#936=DIRECTION('',(0.,-1.,0.));
#937=DIRECTION('center_axis',(0.501542964608313,0.,0.865132738169065));
#938=DIRECTION('ref_axis',(-0.865132738169065,0.,0.501542964608313));
#939=DIRECTION('',(0.,-1.,0.));
#940=DIRECTION('',(-0.865132738169065,0.,0.501542964608313));
#941=DIRECTION('center_axis',(0.999998411204158,0.,-0.00178257935562637));
#942=DIRECTION('ref_axis',(0.00178257935562637,0.,0.999998411204158));
#943=DIRECTION('',(0.00178257935562637,0.,0.999998411204158));
#944=DIRECTION('center_axis',(0.,-1.,0.));
#945=DIRECTION('ref_axis',(0.,0.,-1.));
#946=DIRECTION('center_axis',(0.,1.,0.));
#947=DIRECTION('ref_axis',(0.,0.,-1.));
#948=DIRECTION('center_axis',(0.498455446595844,0.,-0.866915317524692));
#949=DIRECTION('ref_axis',(0.866915317524692,0.,0.498455446595844));
#950=DIRECTION('',(0.,-1.,0.));
#951=DIRECTION('',(0.866915317524692,0.,0.498455446595844));
#952=DIRECTION('',(0.,-1.,0.));
#953=DIRECTION('center_axis',(0.999998411204158,0.,-0.00178257935562637));
#954=DIRECTION('ref_axis',(0.00178257935562637,0.,0.999998411204158));
#955=DIRECTION('',(0.00178257935562637,0.,0.999998411204158));
#956=DIRECTION('',(0.,-1.,0.));
#957=DIRECTION('center_axis',(0.501542964608313,0.,0.865132738169065));
#958=DIRECTION('ref_axis',(-0.865132738169065,0.,0.501542964608313));
#959=DIRECTION('',(-0.865132738169065,0.,0.501542964608313));
#960=DIRECTION('',(0.,-1.,0.));
#961=DIRECTION('center_axis',(-0.501542964608314,0.,-0.865132738169065));
#962=DIRECTION('ref_axis',(0.865132738169065,0.,-0.501542964608314));
#963=DIRECTION('',(0.865132738169065,0.,-0.501542964608314));
#964=DIRECTION('center_axis',(-0.498455446595845,0.,0.866915317524692));
#965=DIRECTION('ref_axis',(-0.866915317524692,0.,-0.498455446595845));
#966=DIRECTION('',(-0.866915317524692,0.,-0.498455446595845));
#967=DIRECTION('center_axis',(0.,-1.,0.));
#968=DIRECTION('ref_axis',(0.,0.,-1.));
#969=DIRECTION('center_axis',(0.,1.,0.));
#970=DIRECTION('ref_axis',(0.,0.,-1.));
#971=DIRECTION('center_axis',(-0.498455446595845,0.,0.866915317524692));
#972=DIRECTION('ref_axis',(-0.866915317524692,0.,-0.498455446595845));
#973=DIRECTION('',(0.,-1.,0.));
#974=DIRECTION('',(-0.866915317524692,0.,-0.498455446595845));
#975=DIRECTION('',(0.,-1.,0.));
#976=DIRECTION('center_axis',(-0.999998411204158,0.,0.00178257935562703));
#977=DIRECTION('ref_axis',(-0.00178257935562703,0.,-0.999998411204158));
#978=DIRECTION('',(-0.00178257935562703,0.,-0.999998411204158));
#979=DIRECTION('',(0.,-1.,0.));
#980=DIRECTION('center_axis',(-0.501542964608314,0.,-0.865132738169065));
#981=DIRECTION('ref_axis',(0.865132738169065,0.,-0.501542964608314));
#982=DIRECTION('',(0.865132738169065,0.,-0.501542964608314));
#983=DIRECTION('',(0.,-1.,0.));
#984=DIRECTION('center_axis',(0.498455446595844,0.,-0.866915317524692));
#985=DIRECTION('ref_axis',(0.866915317524692,0.,0.498455446595844));
#986=DIRECTION('',(0.866915317524692,0.,0.498455446595844));
#987=DIRECTION('',(0.,-1.,0.));
#988=DIRECTION('center_axis',(0.501542964608313,0.,0.865132738169065));
#989=DIRECTION('ref_axis',(-0.865132738169065,0.,0.501542964608313));
#990=DIRECTION('',(0.,-1.,0.));
#991=DIRECTION('',(-0.865132738169065,0.,0.501542964608313));
#992=DIRECTION('center_axis',(0.999998411204158,0.,-0.00178257935562637));
#993=DIRECTION('ref_axis',(0.00178257935562637,0.,0.999998411204158));
#994=DIRECTION('',(0.00178257935562637,0.,0.999998411204158));
#995=DIRECTION('center_axis',(0.,-1.,0.));
#996=DIRECTION('ref_axis',(0.,0.,-1.));
#997=DIRECTION('center_axis',(0.,1.,0.));
#998=DIRECTION('ref_axis',(0.,0.,-1.));
#999=DIRECTION('center_axis',(0.,0.999390827019096,-0.034899496702501));
#1000=DIRECTION('ref_axis',(1.,0.,0.));
#1001=DIRECTION('',(0.,0.999390827019096,-0.034899496702501));
#1002=DIRECTION('center_axis',(0.,0.999390827019096,-0.034899496702501));
#1003=DIRECTION('ref_axis',(1.,0.,0.));
#1004=DIRECTION('',(0.,0.999390827019096,-0.034899496702501));
#1005=DIRECTION('center_axis',(0.,0.999390827019096,-0.034899496702501));
#1006=DIRECTION('ref_axis',(1.,0.,0.));
#1007=DIRECTION('',(0.,0.999390827019096,-0.034899496702501));
#1008=DIRECTION('center_axis',(0.,0.999390827019096,-0.034899496702501));
#1009=DIRECTION('ref_axis',(1.,0.,0.));
#1010=DIRECTION('',(0.,0.999390827019096,-0.034899496702501));
#1011=CARTESIAN_POINT('',(0.,0.,0.));
#1012=CARTESIAN_POINT('Origin',(0.,0.104762308475243,3.));
#1013=CARTESIAN_POINT('',(-4.,1.95556309153787,56.));
#1014=CARTESIAN_POINT('',(4.,1.95556309153787,56.));
#1015=CARTESIAN_POINT('Origin',(0.,1.95556309153787,56.));
#1016=CARTESIAN_POINT('',(-4.,0.104762308475244,3.));
#1017=CARTESIAN_POINT('',(-4.,0.104762308475243,3.));
#1018=CARTESIAN_POINT('',(4.,0.104762308475243,3.));
#1019=CARTESIAN_POINT('Origin',(0.,0.104762308475243,3.));
#1020=CARTESIAN_POINT('',(4.,0.104762308475243,3.));
#1021=CARTESIAN_POINT('Origin',(0.,7.75,3.));
#1022=CARTESIAN_POINT('',(-15.3948812414148,0.104762308475243,3.));
#1023=CARTESIAN_POINT('',(7.75,0.104762308475243,3.));
#1024=CARTESIAN_POINT('',(15.3948812414149,0.104762308475243,3.));
#1025=CARTESIAN_POINT('Origin',(0.,0.,3.));
#1026=CARTESIAN_POINT('',(7.75,0.104762308475243,3.));
#1027=CARTESIAN_POINT('Origin',(15.5,0.,0.));
#1028=CARTESIAN_POINT('',(-13.4025200675965,1.95556309153787,56.));
#1029=CARTESIAN_POINT('',(7.75,1.95556309153787,56.));
#1030=CARTESIAN_POINT('',(-14.005828595525,1.42215372105725,40.7251541634362));
#1031=CARTESIAN_POINT('Ctrl Pts',(-14.005828595525,1.42215372105725,40.7251541634363));
#1032=CARTESIAN_POINT('Ctrl Pts',(-13.7041743315607,1.6947290704891,48.5306909084459));
#1033=CARTESIAN_POINT('Ctrl Pts',(-13.4025200675965,1.95556309153787,56.));
#1034=CARTESIAN_POINT('',(-14.0635386617312,1.36989936483843,39.2287851836186));
#1035=CARTESIAN_POINT('Origin',(-14.0000002086163,1.39597988890176,39.9756336764472));
#1036=CARTESIAN_POINT('',(-14.9403110683749,0.549584038070801,15.738027714443));
#1037=CARTESIAN_POINT('Ctrl Pts',(-14.9403110683749,0.549584038070801,15.738027714443));
#1038=CARTESIAN_POINT('Ctrl Pts',(-14.5019248650529,0.972140570052348,27.838463590617));
#1039=CARTESIAN_POINT('Ctrl Pts',(-14.0635386617312,1.36989936483843,39.2287851836186));
#1040=CARTESIAN_POINT('',(-14.9944364806391,0.497318536389657,14.2413395703431));
#1041=CARTESIAN_POINT('Ctrl Pts',(-14.9403110683749,0.549584038070803,15.738027714443));
#1042=CARTESIAN_POINT('Ctrl Pts',(-14.8429595112321,0.549312786727779,15.7302600922808));
#1043=CARTESIAN_POINT('Ctrl Pts',(-14.748056809469,0.548380516000942,15.7035633516155));
#1044=CARTESIAN_POINT('Ctrl Pts',(-14.573832824297,0.545298887179484,15.6153170481603));
#1045=CARTESIAN_POINT('Ctrl Pts',(-14.4961772058492,0.54317899239636,15.5546112042205));
#1046=CARTESIAN_POINT('Ctrl Pts',(-14.3685207765531,0.538019691041009,15.4068681438458));
#1047=CARTESIAN_POINT('Ctrl Pts',(-14.3197403768473,0.53502961186689,15.3212434792801));
#1048=CARTESIAN_POINT('Ctrl Pts',(-14.2577665320223,0.52856520136926,15.1361269829453));
#1049=CARTESIAN_POINT('Ctrl Pts',(-14.2451655329488,0.525152673803194,15.0384049792301));
#1050=CARTESIAN_POINT('Ctrl Pts',(-14.2581538720021,0.518351129327027,14.8436342288956));
#1051=CARTESIAN_POINT('Ctrl Pts',(-14.2836190339583,0.515027138590741,14.7484475882677));
#1052=CARTESIAN_POINT('Ctrl Pts',(-14.3696247068236,0.508906908569921,14.5731871312418));
#1053=CARTESIAN_POINT('Ctrl Pts',(-14.4293430118817,0.50616918274554,14.4947889211203));
#1054=CARTESIAN_POINT('Ctrl Pts',(-14.5697479011377,0.501824331746671,14.3703686674402));
#1055=CARTESIAN_POINT('Ctrl Pts',(-14.6472793973826,0.500180553007592,14.3232970031191));
#1056=CARTESIAN_POINT('Ctrl Pts',(-14.8153116195074,0.497930170517764,14.258854480157));
#1057=CARTESIAN_POINT('Ctrl Pts',(-14.9044488707046,0.497341832102076,14.2420066722644));
#1058=CARTESIAN_POINT('Ctrl Pts',(-14.9944364806391,0.497318536389655,14.2413395703431));
#1059=CARTESIAN_POINT('Ctrl Pts',(-15.3948812414148,0.104762308475243,3.));
#1060=CARTESIAN_POINT('Ctrl Pts',(-15.1946588610269,0.303626809633002,8.69473422413424));
#1061=CARTESIAN_POINT('Ctrl Pts',(-14.9944364806391,0.497318536389658,14.2413395703431));
#1062=CARTESIAN_POINT('',(-12.6000001639128,1.7449748611272,49.969542095559));
#1063=CARTESIAN_POINT('Origin',(-11.0000001639128,1.7449748611272,49.969542095559));
#1064=CARTESIAN_POINT('',(-12.6000001639128,0.31409549632466,8.99451818777605));
#1065=CARTESIAN_POINT('Origin',(-11.0000001639128,0.31409549632466,8.99451818777605));
#1066=CARTESIAN_POINT('Origin',(15.5,0.,0.));
#1067=CARTESIAN_POINT('',(14.9944364806391,0.497318536389657,14.2413395703431));
#1068=CARTESIAN_POINT('Ctrl Pts',(15.3948812414149,0.104762308475243,3.));
#1069=CARTESIAN_POINT('Ctrl Pts',(15.1946588610269,0.303626809633002,8.69473422413425));
#1070=CARTESIAN_POINT('Ctrl Pts',(14.9944364806391,0.497318536389658,14.2413395703431));
#1071=CARTESIAN_POINT('',(14.9403110683749,0.549584038070801,15.738027714443));
#1072=CARTESIAN_POINT('Origin',(14.9999996647239,0.523492438836576,14.9908620702146));
#1073=CARTESIAN_POINT('',(14.0635386617312,1.36989936483843,39.2287851836186));
#1074=CARTESIAN_POINT('Ctrl Pts',(14.9403110683749,0.549584038070803,15.738027714443));
#1075=CARTESIAN_POINT('Ctrl Pts',(14.5019248650529,0.972140570052349,27.838463590617));
#1076=CARTESIAN_POINT('Ctrl Pts',(14.0635386617312,1.36989936483843,39.2287851836186));
#1077=CARTESIAN_POINT('',(14.005828595525,1.42215372105725,40.7251541634362));
#1078=CARTESIAN_POINT('Ctrl Pts',(14.0635386617312,1.36989936483843,39.2287851836186));
#1079=CARTESIAN_POINT('Ctrl Pts',(13.9662288689063,1.36961061935528,39.2205165948288));
#1080=CARTESIAN_POINT('Ctrl Pts',(13.8682333864521,1.36998795942998,39.231322200724));
#1081=CARTESIAN_POINT('Ctrl Pts',(13.6819025149801,1.37203233461107,39.289865446215));
#1082=CARTESIAN_POINT('Ctrl Pts',(13.5953485733253,1.37367982741923,39.3370434675));
#1083=CARTESIAN_POINT('Ctrl Pts',(13.445207421022,1.37803996200857,39.4619013859478));
#1084=CARTESIAN_POINT('Ctrl Pts',(13.3830557103772,1.38071092114444,39.5383876482644));
#1085=CARTESIAN_POINT('Ctrl Pts',(13.2915868717394,1.38673393855853,39.7108643004619));
#1086=CARTESIAN_POINT('Ctrl Pts',(13.2631442792709,1.3900284138376,39.8052057290465));
#1087=CARTESIAN_POINT('Ctrl Pts',(13.2440447328831,1.39681241447272,39.9994740895053));
#1088=CARTESIAN_POINT('Ctrl Pts',(13.2535703299419,1.40023708050165,40.0975436933698));
#1089=CARTESIAN_POINT('Ctrl Pts',(13.3096998298708,1.40676620894743,40.2845134692598));
#1090=CARTESIAN_POINT('Ctrl Pts',(13.3557669964617,1.40980825033571,40.3716261369579));
#1091=CARTESIAN_POINT('Ctrl Pts',(13.478720142737,1.41510483642989,40.5233005178857));
#1092=CARTESIAN_POINT('Ctrl Pts',(13.5544305587718,1.41730874499289,40.5864122017307));
#1093=CARTESIAN_POINT('Ctrl Pts',(13.6959280260506,1.42000958647455,40.6637541824766));
#1094=CARTESIAN_POINT('Ctrl Pts',(13.7554005745197,1.42082279523974,40.687041434627));
#1095=CARTESIAN_POINT('Ctrl Pts',(13.878793279521,1.42190568188208,40.7180512507937));
#1096=CARTESIAN_POINT('Ctrl Pts',(13.9422135289912,1.42217097464331,40.7256482414968));
#1097=CARTESIAN_POINT('Ctrl Pts',(14.005828595525,1.42215372105725,40.7251541634363));
#1098=CARTESIAN_POINT('',(13.4025200675965,1.95556309153787,56.));
#1099=CARTESIAN_POINT('Ctrl Pts',(14.005828595525,1.42215372105725,40.7251541634363));
#1100=CARTESIAN_POINT('Ctrl Pts',(13.7041743315607,1.6947290704891,48.5306909084459));
#1101=CARTESIAN_POINT('Ctrl Pts',(13.4025200675965,1.95556309153787,56.));
#1102=CARTESIAN_POINT('',(7.75,1.95556309153787,56.));
#1103=CARTESIAN_POINT('',(9.39999983608723,0.31409549632466,8.99451818777605));
#1104=CARTESIAN_POINT('Origin',(10.9999998360872,0.31409549632466,8.99451818777605));
#1105=CARTESIAN_POINT('',(9.39999983608723,1.7449748611272,49.969542095559));
#1106=CARTESIAN_POINT('Origin',(10.9999998360872,1.7449748611272,49.969542095559));
#1107=CARTESIAN_POINT('Origin',(0.,0.,56.));
#1108=CARTESIAN_POINT('Origin',(0.,0.,56.));
#1109=CARTESIAN_POINT('Origin',(0.,0.,0.));
#1110=CARTESIAN_POINT('Origin',(0.,0.,14.2413395703431));
#1111=CARTESIAN_POINT('',(10.9940306345965,10.6443589204505,5.65137450405013));
#1112=CARTESIAN_POINT('',(13.8970106278339,6.26607249675241,7.32051814442277));
#1113=CARTESIAN_POINT('Origin',(-0.31181376828912,0.,-0.849213969890341));
#1114=CARTESIAN_POINT('',(13.9029798293247,5.9620589657973,10.6691443854307));
#1115=CARTESIAN_POINT('Ctrl Pts',(13.8970106278339,6.26607249675241,7.32051814442277));
#1116=CARTESIAN_POINT('Ctrl Pts',(13.9000694311681,6.1135080607003,9.0364577264191));
#1117=CARTESIAN_POINT('Ctrl Pts',(13.9029798293247,5.9620589657973,10.6691443854307));
#1118=CARTESIAN_POINT('',(11.005969037578,10.292554058515,12.348626986066));
#1119=CARTESIAN_POINT('Origin',(0.300673852859383,2.22044604925031E-15,
18.5548023474492));
#1120=CARTESIAN_POINT('',(8.10298904434056,12.7737872449046,10.6794833456933));
#1121=CARTESIAN_POINT('Origin',(-0.307120842166408,0.,5.8438725372829));
#1122=CARTESIAN_POINT('',(8.09701984284979,12.9157977273994,7.33085710468541));
#1123=CARTESIAN_POINT('Ctrl Pts',(8.10298904434056,12.7737872449046,10.6794833456933));
#1124=CARTESIAN_POINT('Ctrl Pts',(8.10002094230361,12.8445270370147,9.01442573584596));
#1125=CARTESIAN_POINT('Ctrl Pts',(8.09701984284979,12.9157977273994,7.33085710468541));
#1126=CARTESIAN_POINT('Origin',(0.305415358614394,2.22044604925031E-15,
11.8478800303803));
#1127=CARTESIAN_POINT('',(-11.0059693654035,10.6320141435957,5.65137450405013));
#1128=CARTESIAN_POINT('',(-8.1029893721661,12.9124797060537,7.32051814442277));
#1129=CARTESIAN_POINT('Origin',(-0.302940885375427,2.22044604925031E-15,
11.8053583281836));
#1130=CARTESIAN_POINT('',(-8.09702017067533,12.7779990453095,10.6691443854307));
#1131=CARTESIAN_POINT('Ctrl Pts',(-8.1029893721661,12.9124797060537,7.32051814442277));
#1132=CARTESIAN_POINT('Ctrl Pts',(-8.09998914806618,12.8449739358005,9.0035957160939));
#1133=CARTESIAN_POINT('Ctrl Pts',(-8.09702017067533,12.7779990453095,10.6691443854307));
#1134=CARTESIAN_POINT('',(-10.994030962422,10.3053047844731,12.348626986066));
#1135=CARTESIAN_POINT('Origin',(0.309694114026222,2.22044604925031E-15,
5.79552416630969));
#1136=CARTESIAN_POINT('',(-13.8970109556594,5.9750446466175,10.6794833456933));
#1137=CARTESIAN_POINT('Origin',(-0.298247959252713,2.22044604925031E-15,
18.4984448353568));
#1138=CARTESIAN_POINT('',(-13.9029801571502,6.25193602178454,7.33085710468541));
#1139=CARTESIAN_POINT('Ctrl Pts',(-13.8970109556594,5.9750446466175,10.6794833456933));
#1140=CARTESIAN_POINT('Ctrl Pts',(-13.8999279673388,6.11293261114023,9.04308660655256));
#1141=CARTESIAN_POINT('Ctrl Pts',(-13.9029801571502,6.25193602178454,7.33085710468541));
#1142=CARTESIAN_POINT('Origin',(0.314435619781235,2.22044604925031E-15,
-0.911398150759259));
#1143=CARTESIAN_POINT('Ctrl Pts',(-14.130043716515,-0.0401064728976666,
39.2287851836186));
#1144=CARTESIAN_POINT('Ctrl Pts',(-14.0909269900367,-13.8214493647522,39.2287851836186));
#1145=CARTESIAN_POINT('Ctrl Pts',(-0.31290814105645,-14.1266355674327,39.2287851836186));
#1146=CARTESIAN_POINT('Ctrl Pts',(13.4651107079238,-14.4318217701131,39.2287851836186));
#1147=CARTESIAN_POINT('Ctrl Pts',(14.1144093374591,-0.66572743254428,39.2287851836186));
#1148=CARTESIAN_POINT('Ctrl Pts',(14.7637079669943,13.1003669050246,39.2287851836186));
#1149=CARTESIAN_POINT('Ctrl Pts',(1.01813116589558,14.0933726584102,39.2287851836186));
#1150=CARTESIAN_POINT('Ctrl Pts',(-12.7274456352032,15.0863784117959,39.2287851836186));
#1151=CARTESIAN_POINT('Ctrl Pts',(-14.0635386617312,1.36989936483844,39.2287851836186));
#1152=CARTESIAN_POINT('Ctrl Pts',(-13.6851698908794,0.00316985323927141,
39.1908051816121));
#1153=CARTESIAN_POINT('Ctrl Pts',(-13.6882615185689,-13.3442777968384,39.1908051816121));
#1154=CARTESIAN_POINT('Ctrl Pts',(-0.345056954119908,-13.6808194450704,
39.1908051816121));
#1155=CARTESIAN_POINT('Ctrl Pts',(12.9981476103291,-14.0173610933023,39.1908051816121));
#1156=CARTESIAN_POINT('Ctrl Pts',(13.6679292042089,-0.686728664710407,39.1908051816121));
#1157=CARTESIAN_POINT('Ctrl Pts',(14.3377107980888,12.6439037638815,39.1908051816121));
#1158=CARTESIAN_POINT('Ctrl Pts',(1.02797170784594,13.6465072145978,39.1908051816121));
#1159=CARTESIAN_POINT('Ctrl Pts',(-12.2817673823969,14.6491106653142,39.1908051816121));
#1160=CARTESIAN_POINT('Ctrl Pts',(-13.6165668481993,1.36857307394307,39.1908051816121));
#1161=CARTESIAN_POINT('Ctrl Pts',(-13.4427838355524,0.0406567169583195,
39.5664004117781));
#1162=CARTESIAN_POINT('Ctrl Pts',(-13.4824372271838,-13.0703864741041,39.5664004117781));
#1163=CARTESIAN_POINT('Ctrl Pts',(-0.376476737767606,-13.4375725294393,
39.5664004117781));
#1164=CARTESIAN_POINT('Ctrl Pts',(12.7294837516486,-13.8047585847746,39.5664004117781));
#1165=CARTESIAN_POINT('Ctrl Pts',(13.4239732670446,-0.712061755535193,39.5664004117781));
#1166=CARTESIAN_POINT('Ctrl Pts',(14.1184627824405,12.3806350737042,39.5664004117781));
#1167=CARTESIAN_POINT('Ctrl Pts',(1.04720229251116,13.4019945372539,39.5664004117781));
#1168=CARTESIAN_POINT('Ctrl Pts',(-12.0240581974182,14.4233540008035,39.5664004117781));
#1169=CARTESIAN_POINT('Ctrl Pts',(-13.3716500595559,1.3816891483979,39.5664004117781));
#1170=CARTESIAN_POINT('Ctrl Pts',(-13.2003977802254,0.0781435806773677,
39.9419956419441));
#1171=CARTESIAN_POINT('Ctrl Pts',(-13.2766129357987,-12.7964951513697,39.9419956419441));
#1172=CARTESIAN_POINT('Ctrl Pts',(-0.407896521415305,-13.1943256138083,
39.9419956419441));
#1173=CARTESIAN_POINT('Ctrl Pts',(12.4608198929681,-13.5921560762469,39.9419956419441));
#1174=CARTESIAN_POINT('Ctrl Pts',(13.1800173298802,-0.73739484635998,39.9419956419441));
#1175=CARTESIAN_POINT('Ctrl Pts',(13.8992147667923,12.1173663835269,39.9419956419441));
#1176=CARTESIAN_POINT('Ctrl Pts',(1.06643287717637,13.1574818599099,39.9419956419441));
#1177=CARTESIAN_POINT('Ctrl Pts',(-11.7663490124395,14.1975973362928,39.9419956419441));
#1178=CARTESIAN_POINT('Ctrl Pts',(-13.1267332709126,1.39480522285273,39.9419956419441));
#1179=CARTESIAN_POINT('Ctrl Pts',(-13.4159562472666,0.0703326346948737,
40.3353168568584));
#1180=CARTESIAN_POINT('Ctrl Pts',(-13.4845532151645,-13.0145450185571,40.3353168568584));
#1181=CARTESIAN_POINT('Ctrl Pts',(-0.405473176446149,-13.4100119392661,
40.3353168568584));
#1182=CARTESIAN_POINT('Ctrl Pts',(12.6736068622722,-13.8054788599751,40.3353168568584));
#1183=CARTESIAN_POINT('Ctrl Pts',(13.3956968787626,-0.7403606150964,40.3353168568584));
#1184=CARTESIAN_POINT('Ctrl Pts',(14.117786895253,12.3247576297823,40.3353168568584));
#1185=CARTESIAN_POINT('Ctrl Pts',(1.07478590833619,13.3730200014551,40.3353168568584));
#1186=CARTESIAN_POINT('Ctrl Pts',(-11.9682150785806,14.4212823731279,40.3353168568584));
#1187=CARTESIAN_POINT('Ctrl Pts',(-13.3419954626275,1.40854030233496,40.3353168568584));
#1188=CARTESIAN_POINT('Ctrl Pts',(-13.6315147143079,0.0625216887123798,
40.7286380717726));
#1189=CARTESIAN_POINT('Ctrl Pts',(-13.6924934945304,-13.2325948857445,40.7286380717726));
#1190=CARTESIAN_POINT('Ctrl Pts',(-0.403049831476994,-13.6256982647239,
40.7286380717726));
#1191=CARTESIAN_POINT('Ctrl Pts',(12.8863938315764,-14.0188016437033,40.7286380717726));
#1192=CARTESIAN_POINT('Ctrl Pts',(13.611376427645,-0.743326383832821,40.7286380717726));
#1193=CARTESIAN_POINT('Ctrl Pts',(14.3363590237137,12.5321488760376,40.7286380717726));
#1194=CARTESIAN_POINT('Ctrl Pts',(1.08313893949601,13.5885581430003,40.7286380717726));
#1195=CARTESIAN_POINT('Ctrl Pts',(-12.1700811447216,14.644967409963,40.7286380717726));
#1196=CARTESIAN_POINT('Ctrl Pts',(-13.5572576543425,1.4222753818172,40.7286380717726));
#1197=CARTESIAN_POINT('Ctrl Pts',(-14.0778352208183,0.0176450851977828,
40.7251541634363));
#1198=CARTESIAN_POINT('Ctrl Pts',(-14.0950448610958,-13.7127777107604,40.7251541634363));
#1199=CARTESIAN_POINT('Ctrl Pts',(-0.369337382024533,-14.0730005951745,
40.7251541634363));
#1200=CARTESIAN_POINT('Ctrl Pts',(13.3563700970467,-14.4332234795886,40.7251541634363));
#1201=CARTESIAN_POINT('Ctrl Pts',(14.0593813684812,-0.720799132314188,40.7251541634363));
#1202=CARTESIAN_POINT('Ctrl Pts',(14.7623926399158,12.9916252149602,40.7251541634363));
#1203=CARTESIAN_POINT('Ctrl Pts',(1.0718109477963,14.0369860420863,40.7251541634363));
#1204=CARTESIAN_POINT('Ctrl Pts',(-12.6187707443232,15.0823468692125,40.7251541634363));
#1205=CARTESIAN_POINT('Ctrl Pts',(-14.005828595525,1.42215372105725,40.7251541634363));
#1206=CARTESIAN_POINT('Origin',(0.,0.,39.2287851836186));
#1207=CARTESIAN_POINT('Origin',(0.,0.,40.7251541634363));
#1208=CARTESIAN_POINT('Origin',(0.,0.,0.));
#1209=CARTESIAN_POINT('Origin',(0.,0.,15.738027714443));
#1210=CARTESIAN_POINT('Origin',(0.,0.,0.));
#1211=CARTESIAN_POINT('',(-10.994030962422,8.06844044196678,53.348626986066));
#1212=CARTESIAN_POINT('',(-12.7246767129049,5.00000025331974,52.3535473248607));
#1213=CARTESIAN_POINT('Origin',(-0.269488795264541,2.22044604925031E-15,
59.5149806626051));
#1214=CARTESIAN_POINT('',(-12.8973272584948,5.00000025331974,47.7478504585307));
#1215=CARTESIAN_POINT('Ctrl Pts',(-12.7246767129049,5.00000025331974,52.3535473248607));
#1216=CARTESIAN_POINT('Ctrl Pts',(-12.8104971903626,5.00000025331974,50.0662163402518));
#1217=CARTESIAN_POINT('Ctrl Pts',(-12.8973272584948,5.00000025331974,47.7478504585307));
#1218=CARTESIAN_POINT('',(-11.0059693654035,8.44218292578479,46.6513745040501));
#1219=CARTESIAN_POINT('Origin',(0.285438498034341,2.22044604925031E-15,
40.1054123359608));
#1220=CARTESIAN_POINT('',(-8.1029893721661,11.1861417477862,48.3205181444228));
#1221=CARTESIAN_POINT('Origin',(-0.274181721387252,2.22044604925031E-15,
52.8218941554318));
#1222=CARTESIAN_POINT('',(-8.09702017067533,11.0458020521459,51.6691443854307));
#1223=CARTESIAN_POINT('Ctrl Pts',(-8.1029893721661,11.1861417477862,48.3205181444228));
#1224=CARTESIAN_POINT('Ctrl Pts',(-8.09998593106382,11.1156651672588,50.0054004027889));
#1225=CARTESIAN_POINT('Ctrl Pts',(-8.09702017067533,11.0458020521459,51.6691443854307));
#1226=CARTESIAN_POINT('Origin',(0.280696992279328,2.22044604925031E-15,
46.8123346530297));
#1227=CARTESIAN_POINT('',(10.9940306345965,8.45772455393105,46.6513745040501));
#1228=CARTESIAN_POINT('',(12.8974052124432,5.00000025331974,47.7457690845366));
#1229=CARTESIAN_POINT('Origin',(-0.283054604300945,0.,40.1673218573579));
#1230=CARTESIAN_POINT('',(12.7247267984573,5.00000025331974,52.3522124189103));
#1231=CARTESIAN_POINT('Ctrl Pts',(12.8974052124432,5.00000025331974,47.7457690845366));
#1232=CARTESIAN_POINT('Ctrl Pts',(12.8105610489938,5.00000025331974,50.0645131428555));
#1233=CARTESIAN_POINT('Ctrl Pts',(12.7247267984573,5.00000025331974,52.3522124189103));
#1234=CARTESIAN_POINT('',(11.005969037578,8.05214837867094,53.348626986066));
#1235=CARTESIAN_POINT('Origin',(0.271676731112489,2.22044604925031E-15,
59.5716128341692));
#1236=CARTESIAN_POINT('',(8.10298904434056,11.0409763066155,51.6794833456933));
#1237=CARTESIAN_POINT('Origin',(-0.278361678178234,0.,46.8604083645312));
#1238=CARTESIAN_POINT('',(8.09701984284979,11.1900178654598,48.3308571046854));
#1239=CARTESIAN_POINT('Ctrl Pts',(8.10298904434056,11.0409763066155,51.6794833456933));
#1240=CARTESIAN_POINT('Ctrl Pts',(8.10002445302882,11.1151903399496,50.0163951963464));
#1241=CARTESIAN_POINT('Ctrl Pts',(8.09701984284979,11.1900178654598,48.3308571046854));
#1242=CARTESIAN_POINT('Origin',(0.276418236867499,2.22044604925031E-15,
52.8646905171003));
#1243=CARTESIAN_POINT('Ctrl Pts',(14.9944364806391,0.497318536389657,14.2413395703431));
#1244=CARTESIAN_POINT('Ctrl Pts',(14.5057281181181,15.2321533820306,14.2413395703431));
#1245=CARTESIAN_POINT('Ctrl Pts',(-0.235394140510713,15.0008346666834,14.2413395703431));
#1246=CARTESIAN_POINT('Ctrl Pts',(-14.9765163991395,14.7695159513361,14.2413395703431));
#1247=CARTESIAN_POINT('Ctrl Pts',(-15.0026578788459,0.0266020461764566,
14.2413395703431));
#1248=CARTESIAN_POINT('Ctrl Pts',(14.2764228290517,0.497504413529341,14.2466623951946));
#1249=CARTESIAN_POINT('Ctrl Pts',(13.7875318075187,14.5267567194919,14.2466623951946));
#1250=CARTESIAN_POINT('Ctrl Pts',(-0.248118695950828,14.2829337514416,14.2466623951946));
#1251=CARTESIAN_POINT('Ctrl Pts',(-14.2837691994203,14.0391107833913,14.2466623951946));
#1252=CARTESIAN_POINT('Ctrl Pts',(-14.2850886462957,0.00134269318722173,
14.2466623951946));
#1253=CARTESIAN_POINT('Ctrl Pts',(14.2504890113298,0.522547067932206,14.9637901895516));
#1254=CARTESIAN_POINT('Ctrl Pts',(13.7369889038068,14.526314553472,14.9637901895516));
#1255=CARTESIAN_POINT('Ctrl Pts',(-0.273610415079043,14.2574412094526,14.9637901895516));
#1256=CARTESIAN_POINT('Ctrl Pts',(-14.2842097339649,13.9885678654331,14.9637901895516));
#1257=CARTESIAN_POINT('Ctrl Pts',(-14.2600451547878,-0.0245903161690032,
14.9637901895516));
#1258=CARTESIAN_POINT('Ctrl Pts',(14.2245551936078,0.547589722335072,15.6809179839085));
#1259=CARTESIAN_POINT('Ctrl Pts',(13.6864460000949,14.5258723874521,15.6809179839085));
#1260=CARTESIAN_POINT('Ctrl Pts',(-0.299102134207258,14.2319486674635,15.6809179839085));
#1261=CARTESIAN_POINT('Ctrl Pts',(-14.2846502685094,13.9380249474748,15.6809179839085));
#1262=CARTESIAN_POINT('Ctrl Pts',(-14.2350016632799,-0.0505233255252281,
15.6809179839085));
#1263=CARTESIAN_POINT('Ctrl Pts',(14.9403110683749,0.549584038070801,15.738027714443));
#1264=CARTESIAN_POINT('Ctrl Pts',(14.4002420871077,15.2312305553811,15.738027714443));
#1265=CARTESIAN_POINT('Ctrl Pts',(-0.288596866847843,14.9476302229869,15.738027714443));
#1266=CARTESIAN_POINT('Ctrl Pts',(-14.9774358208034,14.6640298905928,15.738027714443));
#1267=CARTESIAN_POINT('Ctrl Pts',(-14.950390630077,-0.0275216789806416,
15.738027714443));
#1268=CARTESIAN_POINT('Origin',(11.005969037578,17.0000002533197,53.348626986066));
#1269=CARTESIAN_POINT('',(11.005969037578,5.00000025331974,53.348626986066));
#1270=CARTESIAN_POINT('',(11.005969037578,17.0000002533197,53.348626986066));
#1271=CARTESIAN_POINT('',(8.10298904434056,5.00000025331974,51.6794833456933));
#1272=CARTESIAN_POINT('',(11.005969037578,5.00000025331974,53.348626986066));
#1273=CARTESIAN_POINT('',(8.10298904434056,17.0000002533197,51.6794833456933));
#1274=CARTESIAN_POINT('Origin',(8.10298904434056,17.0000002533197,51.6794833456933));
#1275=CARTESIAN_POINT('',(8.09701984284979,5.00000025331974,48.3308571046854));
#1276=CARTESIAN_POINT('',(8.10298904434056,5.00000025331974,51.6794833456933));
#1277=CARTESIAN_POINT('',(8.09701984284979,17.0000002533197,48.3308571046854));
#1278=CARTESIAN_POINT('Origin',(8.09701984284979,17.0000002533197,48.3308571046854));
#1279=CARTESIAN_POINT('',(10.9940306345965,5.00000025331974,46.6513745040501));
#1280=CARTESIAN_POINT('',(8.09701984284979,5.00000025331974,48.3308571046854));
#1281=CARTESIAN_POINT('',(10.9940306345965,17.0000002533197,46.6513745040501));
#1282=CARTESIAN_POINT('Origin',(10.9940306345965,17.0000002533197,46.6513745040501));
#1283=CARTESIAN_POINT('',(10.9940306345965,5.00000025331974,46.6513745040501));
#1284=CARTESIAN_POINT('Origin',(13.9029798293247,17.0000002533197,51.6691443854307));
#1285=CARTESIAN_POINT('',(13.9029798293247,5.00000025331974,51.6691443854307));
#1286=CARTESIAN_POINT('Origin',(10.9999998360872,5.00000025331974,50.0000007450581));
#1287=CARTESIAN_POINT('',(9.39999983608723,5.00000025331974,49.8558741041484));
#1288=CARTESIAN_POINT('Origin',(10.9999998360872,5.00000025331974,49.8558741041484));
#1289=CARTESIAN_POINT('Origin',(-10.994030962422,17.0000002533197,12.348626986066));
#1290=CARTESIAN_POINT('',(-10.994030962422,5.00000025331974,12.348626986066));
#1291=CARTESIAN_POINT('',(-10.994030962422,17.0000002533197,12.348626986066));
#1292=CARTESIAN_POINT('',(-13.8970109556594,5.00000025331974,10.6794833456933));
#1293=CARTESIAN_POINT('',(-10.994030962422,5.00000025331974,12.348626986066));
#1294=CARTESIAN_POINT('',(-13.8970109556594,17.0000002533197,10.6794833456933));
#1295=CARTESIAN_POINT('Origin',(-13.8970109556594,17.0000002533197,10.6794833456933));
#1296=CARTESIAN_POINT('',(-13.9029801571502,5.00000025331974,7.33085710468541));
#1297=CARTESIAN_POINT('',(-13.8970109556594,5.00000025331974,10.6794833456933));
#1298=CARTESIAN_POINT('',(-13.9029801571502,17.0000002533197,7.33085710468541));
#1299=CARTESIAN_POINT('Origin',(-13.9029801571502,17.0000002533197,7.33085710468541));
#1300=CARTESIAN_POINT('',(-11.0059693654035,5.00000025331974,5.65137450405013));
#1301=CARTESIAN_POINT('',(-13.9029801571502,5.00000025331974,7.33085710468541));
#1302=CARTESIAN_POINT('',(-11.0059693654035,17.0000002533197,5.65137450405013));
#1303=CARTESIAN_POINT('Origin',(-11.0059693654035,17.0000002533197,5.65137450405013));
#1304=CARTESIAN_POINT('',(-8.1029893721661,5.00000025331974,7.32051814442277));
#1305=CARTESIAN_POINT('',(-11.0059693654035,5.00000025331974,5.65137450405013));
#1306=CARTESIAN_POINT('',(-8.1029893721661,17.0000002533197,7.32051814442277));
#1307=CARTESIAN_POINT('Origin',(-8.09702017067533,17.0000002533197,10.6691443854307));
#1308=CARTESIAN_POINT('',(-8.09702017067533,5.00000025331974,10.6691443854307));
#1309=CARTESIAN_POINT('',(-8.09702017067533,17.0000002533197,10.6691443854307));
#1310=CARTESIAN_POINT('',(-8.09702017067533,5.00000025331974,10.6691443854307));
#1311=CARTESIAN_POINT('Origin',(-8.1029893721661,17.0000002533197,7.32051814442277));
#1312=CARTESIAN_POINT('',(-8.1029893721661,5.00000025331974,7.32051814442277));
#1313=CARTESIAN_POINT('Origin',(-11.0000001639128,5.00000025331974,9.00000074505805));
#1314=CARTESIAN_POINT('',(-12.6000001639128,5.00000025331974,8.83088278789674));
#1315=CARTESIAN_POINT('Origin',(-11.0000001639128,5.00000025331974,8.83088278789674));
#1316=CARTESIAN_POINT('Origin',(-11.0059693654035,17.0000002533197,46.6513745040501));
#1317=CARTESIAN_POINT('',(-11.0059693654035,5.00000025331974,46.6513745040501));
#1318=CARTESIAN_POINT('',(-11.0059693654035,17.0000002533197,46.6513745040501));
#1319=CARTESIAN_POINT('',(-8.1029893721661,5.00000025331974,48.3205181444228));
#1320=CARTESIAN_POINT('',(-11.0059693654035,5.00000025331974,46.6513745040501));
#1321=CARTESIAN_POINT('',(-8.1029893721661,17.0000002533197,48.3205181444228));
#1322=CARTESIAN_POINT('Origin',(-8.1029893721661,17.0000002533197,48.3205181444228));
#1323=CARTESIAN_POINT('',(-8.09702017067533,5.00000025331974,51.6691443854307));
#1324=CARTESIAN_POINT('',(-8.1029893721661,5.00000025331974,48.3205181444228));
#1325=CARTESIAN_POINT('',(-8.09702017067533,17.0000002533197,51.6691443854307));
#1326=CARTESIAN_POINT('Origin',(-8.09702017067533,17.0000002533197,51.6691443854307));
#1327=CARTESIAN_POINT('',(-10.994030962422,5.00000025331974,53.348626986066));
#1328=CARTESIAN_POINT('',(-8.09702017067533,5.00000025331974,51.6691443854307));
#1329=CARTESIAN_POINT('',(-10.994030962422,17.0000002533197,53.348626986066));
#1330=CARTESIAN_POINT('Origin',(-13.9029801571502,17.0000002533197,48.3308571046854));
#1331=CARTESIAN_POINT('',(-13.9029801571502,5.00000025331974,48.3308571046854));
#1332=CARTESIAN_POINT('Origin',(-10.994030962422,17.0000002533197,53.348626986066));
#1333=CARTESIAN_POINT('',(-10.994030962422,5.00000025331974,53.348626986066));
#1334=CARTESIAN_POINT('Origin',(-11.0000001639128,5.00000025331974,50.0000007450581));
#1335=CARTESIAN_POINT('',(-12.6000001639128,5.00000025331974,49.8558741041484));
#1336=CARTESIAN_POINT('Origin',(-11.0000001639128,5.00000025331974,49.8558741041484));
#1337=CARTESIAN_POINT('Origin',(11.005969037578,17.0000002533197,12.348626986066));
#1338=CARTESIAN_POINT('',(11.005969037578,5.00000025331974,12.348626986066));
#1339=CARTESIAN_POINT('',(11.005969037578,17.0000002533197,12.348626986066));
#1340=CARTESIAN_POINT('',(8.10298904434056,5.00000025331974,10.6794833456933));
#1341=CARTESIAN_POINT('',(11.005969037578,5.00000025331974,12.348626986066));
#1342=CARTESIAN_POINT('',(8.10298904434056,17.0000002533197,10.6794833456933));
#1343=CARTESIAN_POINT('Origin',(8.10298904434056,17.0000002533197,10.6794833456933));
#1344=CARTESIAN_POINT('',(8.09701984284979,5.00000025331974,7.33085710468541));
#1345=CARTESIAN_POINT('',(8.10298904434056,5.00000025331974,10.6794833456933));
#1346=CARTESIAN_POINT('',(8.09701984284979,17.0000002533197,7.33085710468541));
#1347=CARTESIAN_POINT('Origin',(8.09701984284979,17.0000002533197,7.33085710468541));
#1348=CARTESIAN_POINT('',(10.9940306345965,5.00000025331974,5.65137450405013));
#1349=CARTESIAN_POINT('',(8.09701984284979,5.00000025331974,7.33085710468541));
#1350=CARTESIAN_POINT('',(10.9940306345965,17.0000002533197,5.65137450405013));
#1351=CARTESIAN_POINT('Origin',(10.9940306345965,17.0000002533197,5.65137450405013));
#1352=CARTESIAN_POINT('',(13.8970106278339,5.00000025331974,7.32051814442277));
#1353=CARTESIAN_POINT('',(10.9940306345965,5.00000025331974,5.65137450405013));
#1354=CARTESIAN_POINT('',(13.8970106278339,17.0000002533197,7.32051814442277));
#1355=CARTESIAN_POINT('Origin',(13.9029798293247,17.0000002533197,10.6691443854307));
#1356=CARTESIAN_POINT('',(13.9029798293247,5.00000025331974,10.6691443854307));
#1357=CARTESIAN_POINT('',(13.9029798293247,17.0000002533197,10.6691443854307));
#1358=CARTESIAN_POINT('',(13.9029798293247,5.00000025331974,10.6691443854307));
#1359=CARTESIAN_POINT('Origin',(13.8970106278339,17.0000002533197,7.32051814442277));
#1360=CARTESIAN_POINT('',(13.8970106278339,5.00000025331974,7.32051814442277));
#1361=CARTESIAN_POINT('Origin',(10.9999998360872,5.00000025331974,9.00000074505805));
#1362=CARTESIAN_POINT('',(9.39999983608723,5.00000025331974,8.83088278789674));
#1363=CARTESIAN_POINT('Origin',(10.9999998360872,5.00000025331974,8.83088278789674));
#1364=CARTESIAN_POINT('Origin',(10.9999998360872,1.7449748611272,49.969542095559));
#1365=CARTESIAN_POINT('',(9.39999983608723,1.7449748611272,49.969542095559));
#1366=CARTESIAN_POINT('Origin',(-11.0000001639128,0.31409549632466,8.99451818777605));
#1367=CARTESIAN_POINT('',(-12.6000001639128,0.31409549632466,8.99451818777605));
#1368=CARTESIAN_POINT('Origin',(-11.0000001639128,1.7449748611272,49.969542095559));
#1369=CARTESIAN_POINT('',(-12.6000001639128,1.7449748611272,49.969542095559));
#1370=CARTESIAN_POINT('Origin',(10.9999998360872,0.31409549632466,8.99451818777605));
#1371=CARTESIAN_POINT('',(9.39999983608723,0.31409549632466,8.99451818777605));
#1372=UNCERTAINTY_MEASURE_WITH_UNIT(LENGTH_MEASURE(0.01),#1376,
'DISTANCE_ACCURACY_VALUE',
'Maximum model space distance between geometric entities at asserted c
onnectivities');
#1373=UNCERTAINTY_MEASURE_WITH_UNIT(LENGTH_MEASURE(0.01),#1376,
'DISTANCE_ACCURACY_VALUE',
'Maximum model space distance between geometric entities at asserted c
onnectivities');
#1374=(
GEOMETRIC_REPRESENTATION_CONTEXT(3)
GLOBAL_UNCERTAINTY_ASSIGNED_CONTEXT((#1372))
GLOBAL_UNIT_ASSIGNED_CONTEXT((#1376,#1378,#1379))
REPRESENTATION_CONTEXT('','3D')
);
#1375=(
GEOMETRIC_REPRESENTATION_CONTEXT(3)
GLOBAL_UNCERTAINTY_ASSIGNED_CONTEXT((#1373))
GLOBAL_UNIT_ASSIGNED_CONTEXT((#1376,#1378,#1379))
REPRESENTATION_CONTEXT('','3D')
);
#1376=(
LENGTH_UNIT()
NAMED_UNIT(*)
SI_UNIT(.MILLI.,.METRE.)
);
#1377=(
LENGTH_UNIT()
NAMED_UNIT(*)
SI_UNIT($,.METRE.)
);
#1378=(
NAMED_UNIT(*)
PLANE_ANGLE_UNIT()
SI_UNIT($,.RADIAN.)
);
#1379=(
NAMED_UNIT(*)
SI_UNIT($,.STERADIAN.)
SOLID_ANGLE_UNIT()
);
#1380=SHAPE_DEFINITION_REPRESENTATION(#1381,#1382);
#1381=PRODUCT_DEFINITION_SHAPE('',$,#1384);
#1382=SHAPE_REPRESENTATION('',(#740),#1374);
#1383=PRODUCT_DEFINITION_CONTEXT('part definition',#1388,'design');
#1384=PRODUCT_DEFINITION('cep_inkubator_1','cep_inkubator_1 v4',#1385,#1383);
#1385=PRODUCT_DEFINITION_FORMATION('',$,#1390);
#1386=PRODUCT_RELATED_PRODUCT_CATEGORY('cep_inkubator_1 v4',
'cep_inkubator_1 v4',(#1390));
#1387=APPLICATION_PROTOCOL_DEFINITION('international standard',
'automotive_design',2009,#1388);
#1388=APPLICATION_CONTEXT(
'Core Data for Automotive Mechanical Design Process');
#1389=PRODUCT_CONTEXT('part definition',#1388,'mechanical');
#1390=PRODUCT('cep_inkubator_1','cep_inkubator_1 v4',$,(#1389));
#1391=PRESENTATION_STYLE_ASSIGNMENT((#1392));
#1392=SURFACE_STYLE_USAGE(.BOTH.,#1393);
#1393=SURFACE_SIDE_STYLE('',(#1394));
#1394=SURFACE_STYLE_FILL_AREA(#1395);
#1395=FILL_AREA_STYLE('Steel - Satin',(#1396));
#1396=FILL_AREA_STYLE_COLOUR('Steel - Satin',#1397);
#1397=COLOUR_RGB('Steel - Satin',0.627450980392157,0.627450980392157,0.627450980392157);
ENDSEC;
END-ISO-10303-21;
